<svg width="256" height="261" viewBox="0 0 256 261" fill="none" xmlns="http://www.w3.org/2000/svg">
<g clip-path="url(#clip0_227_208)">
<path d="M206.42 109.397C206.506 109.139 206.57 108.881 206.635 108.622C206.678 108.472 206.699 108.321 206.742 108.17C206.807 107.847 206.85 107.524 206.893 107.202C206.914 107.094 206.935 106.986 206.935 106.857C206.935 106.814 206.957 106.771 206.957 106.728C206.978 106.577 206.957 106.448 206.978 106.297C207 105.953 207.021 105.609 207 105.264C207 105.049 206.978 104.855 206.957 104.64C206.935 104.425 206.935 104.231 206.914 104.016C206.893 103.887 206.871 103.757 206.85 103.628C206.828 103.521 206.807 103.413 206.807 103.284C206.742 102.853 206.635 102.423 206.527 102.014C206.506 101.971 206.506 101.906 206.484 101.863C206.356 101.411 206.205 100.98 206.033 100.55C205.969 100.399 205.905 100.249 205.84 100.098C205.733 99.8396 205.604 99.6028 205.475 99.366C205.368 99.1722 205.26 98.9785 205.153 98.7848C205.067 98.6341 204.96 98.4834 204.874 98.3542C204.573 97.8806 204.229 97.4286 203.864 96.9981C203.821 96.955 203.8 96.912 203.757 96.8689C203.542 96.6106 203.306 96.3738 203.07 96.137C203.027 96.094 202.984 96.0509 202.919 96.0078C202.747 95.8356 202.576 95.6419 202.382 95.4912C198.753 92.3699 196.455 87.957 196.455 83.135V81.8004C196.455 77 198.753 72.5871 202.382 69.4442C202.425 69.4012 202.468 69.3581 202.49 69.3366C202.747 69.1214 202.962 68.8846 203.199 68.6478C203.306 68.5401 203.413 68.4325 203.521 68.3249C203.843 67.9589 204.165 67.593 204.444 67.2055C204.444 67.184 204.466 67.184 204.466 67.1625C204.745 66.775 205.003 66.3875 205.239 65.9785C205.325 65.8493 205.389 65.6987 205.454 65.548C205.604 65.2681 205.754 64.9668 205.883 64.6654C205.969 64.4932 206.033 64.2994 206.098 64.1272C206.205 63.8474 206.313 63.5675 206.399 63.2662C206.463 63.0724 206.506 62.8787 206.549 62.685C206.613 62.4051 206.678 62.1037 206.742 61.8024C206.785 61.5871 206.807 61.3934 206.85 61.1781C206.893 60.8767 206.914 60.5754 206.935 60.2525C206.957 60.0372 206.957 59.8435 206.978 59.6282C206.978 59.3053 206.978 58.9609 206.957 58.638C206.957 58.4873 206.957 58.3366 206.935 58.1859C206.935 58.1214 206.914 58.0783 206.914 58.0137C206.914 57.9707 206.914 57.9276 206.914 57.8846C206.893 57.7339 206.871 57.5832 206.85 57.411C206.828 57.2388 206.807 57.0666 206.764 56.9159C206.721 56.6791 206.656 56.4423 206.613 56.2055C206.57 56.0763 206.549 55.9472 206.506 55.818C206.442 55.5597 206.356 55.3229 206.27 55.0646C206.227 54.957 206.205 54.8493 206.162 54.7417C206.076 54.4834 205.969 54.2466 205.84 53.9883C205.797 53.9022 205.754 53.7945 205.711 53.7084C205.604 53.4716 205.475 53.2349 205.346 52.9981C205.303 52.912 205.239 52.8043 205.196 52.7182C205.067 52.503 204.917 52.2877 204.788 52.0724C204.723 51.9648 204.659 51.8572 204.594 51.7711C204.466 51.5773 204.315 51.4051 204.165 51.2114C204.079 51.1037 203.993 50.9746 203.886 50.867C203.757 50.7163 203.607 50.5656 203.478 50.4149C203.349 50.2857 203.241 50.1566 203.113 50.0274C202.984 49.8983 202.855 49.7906 202.726 49.6615C202.576 49.5108 202.425 49.3816 202.275 49.2525C202.168 49.1664 202.039 49.0803 201.931 48.9726C201.738 48.8219 201.566 48.6928 201.373 48.5421C201.266 48.4775 201.18 48.4129 201.072 48.3268C200.858 48.1762 200.643 48.047 200.428 47.9178C200.342 47.8533 200.235 47.8102 200.149 47.7671C199.913 47.638 199.676 47.5088 199.44 47.4012C199.354 47.3581 199.247 47.3151 199.161 47.272C198.925 47.1644 198.667 47.0568 198.409 46.9491C198.302 46.9061 198.194 46.8846 198.087 46.8415C197.851 46.7554 197.593 46.6693 197.335 46.6047C197.206 46.5617 197.078 46.5401 196.949 46.4971C196.713 46.4325 196.498 46.3895 196.261 46.3464C196.09 46.3249 195.918 46.3033 195.768 46.2603C195.617 46.2388 195.467 46.1957 195.295 46.1957C195.252 46.1957 195.209 46.1957 195.166 46.1957C195.102 46.1957 195.059 46.1742 194.994 46.1742C194.844 46.1527 194.694 46.1742 194.543 46.1527C194.2 46.1311 193.878 46.1096 193.555 46.1311C193.341 46.1311 193.147 46.1527 192.933 46.1742C192.632 46.1957 192.31 46.2172 192.009 46.2603C191.794 46.2818 191.601 46.3249 191.386 46.3679C191.086 46.4325 190.806 46.4971 190.506 46.5617C190.312 46.6047 190.119 46.6693 189.926 46.7124C189.625 46.7985 189.346 46.9061 189.067 47.0137C188.895 47.0783 188.702 47.1429 188.53 47.229C181.979 50.0705 179.424 56.7006 171.434 56.7006H170.103C160.245 56.7006 152.384 48.0039 151.01 38.6184C149.378 27.317 159.278 15.908 170.79 15.908C175.88 15.908 180.562 18.2975 183.977 22.0861C186.404 24.7769 189.904 26.4775 193.813 26.4775C201.609 26.4775 207.816 19.7182 206.935 11.7319C206.248 5.55384 201.18 0.602759 195.016 0.0430724C190.527 -0.36593 186.447 1.50687 183.783 4.60667C180.669 8.24464 176.267 10.548 171.456 10.548H170.124C165.335 10.548 160.932 8.24464 157.797 4.60667C157.625 4.41294 157.453 4.24072 157.281 4.06851C157.238 4.02546 157.195 3.98241 157.152 3.91783C156.916 3.68104 156.68 3.44425 156.422 3.22898C156.379 3.18593 156.336 3.1644 156.315 3.14288C155.885 2.77693 155.434 2.43251 154.962 2.13114C154.811 2.04503 154.682 1.9374 154.532 1.85129C154.339 1.74366 154.145 1.63603 153.952 1.5284C153.716 1.39924 153.458 1.27008 153.222 1.16245C153.072 1.09787 152.921 1.03329 152.771 0.968708C152.341 0.796497 151.912 0.645812 151.461 0.516654C151.418 0.495127 151.353 0.495127 151.311 0.473601C150.902 0.365969 150.473 0.258337 150.043 0.193757C149.936 0.172231 149.807 0.150704 149.7 0.150704C149.571 0.129178 149.442 0.107652 149.313 0.0861252C149.098 0.0645988 148.905 0.0645988 148.69 0.0430724C148.476 0.021546 148.282 0.021546 148.068 1.95364e-05C147.724 1.95364e-05 147.38 1.95364e-05 147.037 0.021546C146.886 0.021546 146.757 0.021546 146.607 0.0430724C146.564 0.0430724 146.521 0.0645988 146.478 0.0645988C146.371 0.0861252 146.263 0.0861252 146.156 0.107652C145.834 0.150704 145.512 0.193757 145.19 0.258337C145.039 0.279863 144.889 0.322916 144.739 0.365969C144.481 0.430548 144.223 0.495127 143.965 0.581233C143.794 0.645812 143.6 0.688865 143.429 0.753444C143.235 0.818023 143.063 0.882603 142.892 0.968708C139.971 2.15266 137.587 4.32683 136.126 7.08221C136.04 7.2329 135.955 7.38358 135.89 7.53427C135.804 7.70648 135.718 7.90022 135.654 8.09395C135.547 8.33074 135.461 8.56754 135.375 8.80433C135.332 8.95501 135.267 9.08417 135.224 9.23485C135.117 9.55775 135.031 9.90217 134.945 10.2251C134.924 10.3112 134.902 10.3758 134.881 10.4619C134.795 10.8924 134.709 11.3014 134.666 11.7534C134.666 11.775 134.666 11.775 134.666 11.7965C134.644 12.0763 134.623 12.3777 134.623 12.6576C134.623 12.8513 134.602 13.045 134.58 13.2603C134.58 13.4971 134.602 13.7339 134.623 13.9491C134.644 14.1859 134.644 14.4442 134.666 14.681C134.687 14.9178 134.73 15.1331 134.773 15.3699C134.816 15.6067 134.838 15.8435 134.881 16.0803C134.924 16.2955 134.988 16.5108 135.053 16.726C135.117 16.9628 135.181 17.1996 135.246 17.4364C135.31 17.6302 135.396 17.8239 135.482 18.0176C135.568 18.2544 135.654 18.4912 135.761 18.7065C135.847 18.9002 135.955 19.0724 136.04 19.2662C136.148 19.4814 136.255 19.7182 136.384 19.9335C136.492 20.1057 136.62 20.2779 136.728 20.4501C136.857 20.6654 136.985 20.8591 137.136 21.0744C137.265 21.2466 137.394 21.3758 137.522 21.548C137.673 21.7417 137.823 21.9354 137.995 22.1292C138.124 22.2799 138.274 22.409 138.403 22.5382C138.575 22.7104 138.747 22.9041 138.961 23.0979C142.741 26.5206 145.125 31.2133 145.125 36.3366C145.125 41.4384 142.741 46.1311 138.961 49.5538C137.802 50.5871 136.857 51.8356 136.126 53.2349C136.04 53.3855 135.955 53.5362 135.89 53.6869C135.804 53.8591 135.718 54.0529 135.654 54.2466C135.547 54.4834 135.461 54.7202 135.375 54.957C135.332 55.1077 135.267 55.2368 135.224 55.3875C135.117 55.7104 135.031 56.0548 134.945 56.3777C134.924 56.4638 134.902 56.5284 134.881 56.6145C134.795 57.045 134.709 57.454 134.666 57.9061C134.666 57.9276 134.666 57.9276 134.666 57.9491C134.644 58.229 134.623 58.5088 134.623 58.7887C134.623 59.0039 134.58 59.1977 134.58 59.4129C134.58 59.6497 134.602 59.865 134.623 60.1018C134.644 60.3601 134.644 60.5969 134.666 60.8337C134.687 61.049 134.73 61.2642 134.773 61.501C134.816 61.7378 134.838 61.9961 134.902 62.2329C134.945 62.4482 135.01 62.6419 135.074 62.8572C135.138 63.094 135.203 63.3523 135.267 63.5891C135.332 63.7828 135.418 63.9765 135.504 64.1918C135.589 64.4286 135.675 64.6654 135.783 64.8806C135.869 65.0744 135.976 65.2466 136.062 65.4188C136.169 65.6341 136.277 65.8709 136.406 66.0861C136.513 66.2583 136.62 66.409 136.728 66.5812C136.857 66.7965 137.007 67.0118 137.157 67.227C137.286 67.3992 137.415 67.5499 137.544 67.7006C137.694 67.8943 137.845 68.0881 138.016 68.2603C138.167 68.411 138.317 68.5617 138.467 68.7124C138.639 68.8846 138.811 69.0568 138.983 69.229C139.133 69.3797 139.305 69.4873 139.477 69.638C139.67 69.7887 139.842 69.9609 140.035 70.09C140.207 70.2192 140.4 70.3268 140.572 70.4345C140.765 70.5636 140.959 70.7143 141.173 70.8219C141.345 70.9296 141.539 71.0157 141.732 71.1018C141.947 71.2094 142.161 71.3386 142.398 71.4462C142.591 71.5323 142.784 71.5969 142.977 71.683C143.214 71.7691 143.429 71.8767 143.686 71.9628C143.88 72.0274 144.094 72.0705 144.288 72.135C144.524 72.1996 144.782 72.2857 145.018 72.3288C145.233 72.3718 145.447 72.3934 145.662 72.4364C145.92 72.4795 146.156 72.5225 146.414 72.5656C146.629 72.5871 146.865 72.5871 147.08 72.6086C147.337 72.6302 147.595 72.6517 147.853 72.6517C148.025 72.6517 148.218 72.6302 148.39 72.6302C148.69 72.6086 149.012 72.6086 149.292 72.5871C149.313 72.5871 149.313 72.5871 149.335 72.5871C149.764 72.5441 150.194 72.4579 150.623 72.3718C150.709 72.3503 150.774 72.3288 150.859 72.3073C151.182 72.2212 151.525 72.135 151.847 72.0274C151.998 71.9844 152.127 71.9198 152.277 71.8767C152.513 71.7906 152.749 71.7045 152.986 71.5969C153.179 71.5108 153.351 71.4462 153.544 71.3601C153.694 71.2955 153.845 71.2094 153.995 71.1233C155.37 70.3914 156.637 69.4227 157.668 68.2818C161.082 64.4932 165.764 62.1037 170.876 62.1037C180.884 62.1037 191.214 72.5441 191.214 82.5108C191.214 92.09 181.206 102.896 171.52 102.896H170.189C165.399 102.896 160.997 100.593 157.861 96.955C155.198 93.8337 151.117 91.9824 146.629 92.3914C140.465 92.9296 135.375 97.9022 134.709 104.08C133.828 112.067 140.057 118.826 147.831 118.826C151.74 118.826 155.241 117.125 157.668 114.434C161.082 110.646 165.764 108.256 170.876 108.256C175.966 108.256 180.648 110.646 184.063 114.456C184.234 114.628 184.406 114.8 184.578 114.973C184.728 115.123 184.857 115.274 185.008 115.403C185.179 115.575 185.373 115.705 185.566 115.855C185.738 115.984 185.888 116.135 186.06 116.264C186.253 116.393 186.447 116.523 186.661 116.652C186.833 116.781 187.026 116.91 187.198 117.018C187.392 117.125 187.606 117.233 187.821 117.341C188.014 117.448 188.208 117.556 188.422 117.642C188.637 117.75 188.852 117.814 189.088 117.9C189.303 117.986 189.496 118.072 189.711 118.137C189.926 118.202 190.162 118.266 190.398 118.331C190.613 118.395 190.828 118.46 191.064 118.503C191.3 118.546 191.537 118.589 191.773 118.611C192.009 118.654 192.224 118.697 192.46 118.718C192.696 118.74 192.933 118.74 193.19 118.761C193.427 118.783 193.663 118.804 193.921 118.804C194.114 118.804 194.286 118.783 194.479 118.783C194.78 118.761 195.08 118.761 195.359 118.74C195.381 118.74 195.381 118.74 195.402 118.74C195.832 118.697 196.262 118.611 196.691 118.524C196.777 118.503 196.841 118.481 196.927 118.46C197.271 118.374 197.593 118.288 197.915 118.18C198.066 118.137 198.194 118.072 198.345 118.029C198.581 117.943 198.817 117.857 199.053 117.75C199.247 117.663 199.419 117.599 199.612 117.513C199.762 117.448 199.913 117.362 200.063 117.276C202.812 115.812 204.981 113.423 206.162 110.495C206.227 110.323 206.313 110.129 206.377 109.957C206.291 109.763 206.356 109.569 206.42 109.397Z" fill="white"/>
<path d="M108.445 46.1955C98.9518 45.356 94.5491 56.7219 84.8845 56.7219H83.5529C74.2964 56.7219 63.8587 46.217 63.8587 36.9822V35.6475C63.8587 25.9607 74.7904 15.9078 84.2402 15.9078C89.3302 15.9078 94.0122 18.2973 97.427 22.0859C99.8539 24.7767 103.355 26.4773 107.263 26.4773C115.059 26.4773 121.266 19.718 120.386 11.7317C119.698 5.55361 114.63 0.602538 108.466 0.0428507C103.977 -0.366151 99.8968 1.50665 97.2337 4.60645C94.1195 8.24442 89.7168 10.5477 84.906 10.5477H83.5744C78.7851 10.5477 74.3823 8.24442 71.2467 4.60645C71.0749 4.41271 70.9031 4.2405 70.7313 4.06829C70.6883 4.02524 70.6454 3.96066 70.6024 3.91761C70.3662 3.68082 70.1299 3.44402 69.8722 3.22876C69.8292 3.18571 69.7863 3.16418 69.7433 3.12113C69.3138 2.75518 68.8628 2.41076 68.3903 2.10939C68.24 2.02328 68.1111 1.91565 67.9608 1.82954C67.7675 1.72191 67.5742 1.61428 67.3809 1.50665C67.1446 1.37749 66.8869 1.24833 66.6507 1.1407C66.5003 1.07612 66.35 1.01154 66.1996 0.94696C65.7701 0.774749 65.3406 0.624064 64.8896 0.494906C64.8466 0.473379 64.7822 0.473379 64.7392 0.451853C64.3312 0.344221 63.9016 0.236588 63.4721 0.172009C63.3647 0.150483 63.2359 0.128956 63.1285 0.128956C62.9996 0.10743 62.8708 0.0859036 62.7419 0.0643772C62.5271 0.0428507 62.3338 0.0428507 62.1191 0.0213243C61.9043 -0.000202099 61.711 -0.000202099 61.4962 -0.0217285C61.1526 -0.0217285 60.809 -0.0217285 60.4653 -0.000202099C60.315 -0.000202099 60.1861 -0.000202099 60.0358 0.0213243C59.9929 0.0213243 59.9499 0.0428507 59.9069 0.0428507C59.7996 0.0643772 59.6922 0.0643772 59.5633 0.0859036C59.2412 0.128956 58.919 0.172009 58.5969 0.236588C58.4465 0.258115 58.2962 0.301168 58.1458 0.344221C57.8881 0.4088 57.6304 0.473379 57.3727 0.559485C57.2009 0.624064 57.0076 0.667117 56.8358 0.731696C56.664 0.796275 56.4707 0.860855 56.2989 0.94696C53.378 2.13091 50.9941 4.30508 49.5336 7.06046C49.4477 7.21115 49.3618 7.36183 49.2974 7.51252C49.2115 7.68473 49.1256 7.87847 49.0611 8.0722C48.9538 8.309 48.8679 8.54579 48.782 8.78258C48.739 8.93326 48.6746 9.06242 48.6316 9.21311C48.5242 9.536 48.4383 9.88042 48.3524 10.2033C48.3309 10.2894 48.3095 10.354 48.288 10.4401C48.2021 10.8706 48.1162 11.2796 48.0732 11.7317C48.0732 11.7532 48.0732 11.7532 48.0732 11.7747C48.0518 12.0546 48.0303 12.356 48.0303 12.6358C48.0303 12.8295 48.0088 13.0233 47.9873 13.2385C47.9873 13.4753 48.0088 13.7121 48.0303 13.9274C48.0517 14.1642 48.0518 14.4225 48.0732 14.6593C48.0947 14.8961 48.1376 15.1113 48.1806 15.3481C48.2235 15.5849 48.245 15.8217 48.288 16.0585C48.3309 16.2738 48.3954 16.489 48.4598 16.7043C48.5242 16.9411 48.5887 17.1779 48.6531 17.4147C48.7175 17.6084 48.8034 17.8021 48.8893 17.9959C48.9752 18.2327 49.0612 18.4695 49.1685 18.6847C49.2544 18.8785 49.3618 19.0507 49.4477 19.2444C49.5551 19.4597 49.6625 19.6965 49.7914 19.9117C49.8987 20.0839 50.0276 20.2562 50.135 20.4284C50.2638 20.6436 50.3927 20.8374 50.5431 21.0526C50.6719 21.2248 50.8008 21.354 50.9297 21.5262C51.08 21.72 51.2303 21.9137 51.4021 22.1074C51.531 22.2581 51.6813 22.3873 51.8102 22.5164C51.982 22.6886 52.1538 22.8824 52.3686 23.0761C56.1485 26.4988 58.5324 31.1916 58.5324 36.3149C58.5324 41.4166 56.1485 46.1094 52.3686 49.5321C52.1753 49.7043 52.0035 49.898 51.8102 50.0918C51.6813 50.2209 51.531 50.3501 51.4021 50.5008C51.2303 50.6945 51.0585 50.9098 50.8867 51.125C50.7793 51.2757 50.6504 51.4049 50.5431 51.5556C50.3712 51.7924 50.2209 52.0292 50.0706 52.2659C49.9847 52.4166 49.8773 52.5458 49.7914 52.6965C49.684 52.8687 49.6196 53.0409 49.5122 53.2346C49.4263 53.3853 49.3618 53.536 49.2759 53.6867C49.233 53.7728 49.19 53.8374 49.1471 53.9235C49.1041 54.0311 49.0611 54.1387 49.0182 54.2464C48.9108 54.4832 48.8249 54.72 48.739 54.9567C48.7175 55.0429 48.6746 55.129 48.6316 55.2151C48.6101 55.2796 48.6101 55.3227 48.5887 55.3873C48.4813 55.7102 48.3954 56.0331 48.3095 56.3775C48.288 56.4421 48.2665 56.5066 48.2665 56.5497C48.2665 56.5712 48.2665 56.5928 48.2665 56.6143C48.1806 57.0448 48.0947 57.4538 48.0517 57.9059C48.0517 57.9274 48.0517 57.9274 48.0517 57.9704C48.0303 58.2503 48.0088 58.5517 48.0088 58.8315C48.0088 59.0252 47.9873 59.219 47.9873 59.4127C47.9873 59.6495 48.0088 59.8863 48.0303 60.1231C48.0517 60.3599 48.0518 60.5967 48.0732 60.8335C48.0947 61.0702 48.1376 61.2855 48.1806 61.5223C48.2235 61.7591 48.245 61.9959 48.3095 62.2542C48.3524 62.4695 48.4168 62.6847 48.4813 62.9C48.5457 63.1368 48.5887 63.3736 48.6746 63.6104C48.739 63.8256 48.8249 64.0194 48.9108 64.2131C48.9967 64.4284 49.0826 64.6652 49.1685 64.8804C49.2544 65.0742 49.3618 65.2464 49.4692 65.4401C49.5766 65.6554 49.684 65.8706 49.8128 66.0859C49.9202 66.2581 50.0276 66.4303 50.1565 66.6025C50.2853 66.8178 50.4142 67.0115 50.5645 67.2268C50.6934 67.399 50.8223 67.5497 50.9511 67.7219C51.1015 67.9156 51.2518 68.1094 51.4236 68.2816C51.5525 68.4323 51.7243 68.583 51.8531 68.7121C52.025 68.8843 52.1753 69.0565 52.3686 69.2288C56.1485 72.6515 58.5324 77.3442 58.5324 82.4675C58.5324 87.5693 56.1485 92.262 52.3686 95.6847C49.684 98.1172 47.9873 101.626 47.9873 105.544C47.9873 113.358 54.731 119.579 62.6989 118.696C68.8628 118.008 73.8024 112.927 74.3608 106.749C74.7689 102.25 72.9004 98.1603 69.8078 95.491C66.1782 92.3697 63.8802 87.9567 63.8802 83.1348V81.8002C63.8802 72.0918 74.8119 62.0605 84.2617 62.0605C89.3517 62.0605 94.0336 64.4499 97.4484 68.2385C99.8753 70.9293 103.376 72.6299 107.285 72.6299C115.081 72.6299 121.288 65.8706 120.407 57.8843C119.677 51.7278 114.608 46.7552 108.445 46.1955Z" fill="white"/>
</g>
<path d="M79.6254 185.118C77.2589 183.806 75.3873 182.043 74.0535 179.807C72.6982 177.571 72.0312 175.099 72.0312 172.368C72.0312 169.508 72.7842 166.799 74.2686 164.241C75.753 161.661 77.7107 159.597 80.1202 158.027C82.5296 156.458 85.0252 155.684 87.6067 155.684C90.1883 155.684 92.6623 156.458 95.0933 158.027C97.5028 159.597 99.4605 161.661 100.945 164.241C102.429 166.821 103.182 169.53 103.182 172.368C103.182 175.099 102.515 177.571 101.16 179.807C99.8047 182.043 97.9546 183.806 95.5881 185.118C93.2217 186.429 90.554 187.074 87.6283 187.074C84.7025 187.074 82.0133 186.408 79.6254 185.118ZM93.781 178.302C95.416 176.754 96.2335 174.776 96.2335 172.368C96.2335 170.712 95.8032 169.1 94.9427 167.509C94.0822 165.918 92.9635 164.628 91.6297 163.617C90.2744 162.607 88.9406 162.112 87.6283 162.112C86.316 162.112 84.9606 162.607 83.6268 163.617C82.293 164.628 81.1743 165.918 80.3138 167.509C79.4533 169.1 79.023 170.712 79.023 172.368C79.023 174.776 79.8405 176.754 81.4755 178.302C83.1105 179.85 85.1542 180.624 87.6498 180.624C90.1453 180.624 92.146 179.85 93.781 178.302ZM80.2062 150.244C79.5178 149.513 79.1736 148.61 79.1736 147.514C79.1736 146.417 79.5178 145.514 80.2062 144.805C80.8947 144.095 81.7767 143.73 82.8308 143.73C83.885 143.73 84.767 144.095 85.4554 144.805C86.1439 145.514 86.4881 146.417 86.4881 147.514C86.4881 148.61 86.1439 149.513 85.4554 150.244C84.767 150.975 83.885 151.341 82.8308 151.341C81.7767 151.341 80.8947 150.975 80.2062 150.244ZM89.7365 150.244C89.0481 149.513 88.7039 148.61 88.7039 147.514C88.7039 146.417 89.0481 145.514 89.7365 144.805C90.425 144.095 91.307 143.73 92.3611 143.73C93.4153 143.73 94.2973 144.095 94.9857 144.805C95.6742 145.514 96.0184 146.417 96.0184 147.514C96.0184 148.61 95.6742 149.513 94.9857 150.244C94.2973 150.975 93.4153 151.341 92.3611 151.341C91.307 151.341 90.425 150.975 89.7365 150.244Z" fill="white"/>
<path d="M127.385 183.828C127.385 185.999 126.976 187.074 126.18 187.074H119.554V187.203C119.554 191.417 118.414 194.728 116.112 197.093C113.81 199.458 110.669 200.684 106.646 200.77L105.57 194.255C108.066 194.406 109.851 193.933 110.97 192.836C112.067 191.74 112.627 189.848 112.627 187.203V157.769H119.554V180.603H126.18C126.997 180.624 127.385 181.678 127.385 183.828Z" fill="white"/>
<path d="M159.783 183.828C159.783 185.999 159.375 187.074 158.579 187.074H126.18C125.384 187.074 124.975 185.999 124.975 183.828C124.975 181.699 125.384 180.624 126.18 180.624H144.143V180.151C144.143 175.529 143.154 171.938 141.153 169.401C139.174 166.843 136.334 165.574 132.677 165.574L128.331 160.995L144.014 145.149L148.36 149.664L138.485 159.704C142.336 160.909 145.413 163.36 147.671 167.036C149.952 170.713 151.071 175.249 151.071 180.624H158.557C159.375 180.624 159.783 181.678 159.783 183.828Z" fill="white"/>
<path d="M192.332 159.296V187.074H158.557C157.761 187.074 157.352 185.999 157.352 183.828C157.352 181.699 157.761 180.624 158.557 180.624H165.85C164.043 178.044 163.139 175.163 163.139 171.938C163.139 168.928 163.871 166.198 165.376 163.768C166.861 161.339 168.883 159.425 171.465 158.049C174.046 156.673 176.843 155.963 179.898 155.963C183.77 155.963 187.922 157.081 192.332 159.296ZM171.981 177.528C173.25 179.076 174.971 180.108 177.144 180.624H185.405V163.381C183.361 162.736 181.554 162.414 179.984 162.414C178.091 162.414 176.391 162.822 174.885 163.639C173.379 164.456 172.196 165.596 171.357 167.036C170.518 168.477 170.088 170.089 170.088 171.852C170.088 174.088 170.733 175.98 171.981 177.528ZM177.08 149.642C176.327 148.847 175.939 147.836 175.939 146.632C175.939 145.428 176.327 144.439 177.08 143.644C177.854 142.87 178.801 142.461 179.984 142.461C181.167 142.461 182.114 142.848 182.888 143.644C183.641 144.418 184.028 145.428 184.028 146.632C184.028 147.836 183.641 148.847 182.888 149.642C182.114 150.438 181.167 150.846 179.984 150.846C178.801 150.846 177.854 150.438 177.08 149.642Z" fill="white"/>
<path d="M46.9201 217.583V246.866L13.2736 246.93C9.10005 246.93 5.83005 245.748 3.50664 243.383C1.18322 241.018 0 237.75 0 233.622C0 230.934 0.516315 228.548 1.57046 226.484C2.6246 224.42 4.13052 222.528 6.08821 220.851L11.5741 224.699C9.96057 226.097 8.79886 227.516 8.0459 228.956C7.29294 230.375 6.92722 231.923 6.92722 233.557C6.92722 235.643 7.52959 237.32 8.73432 238.567C9.93906 239.814 11.6386 240.437 13.7899 240.437H39.9714V217.583H46.9201ZM16.9738 212.272C16.2854 211.541 15.9412 210.638 15.9412 209.542C15.9412 208.445 16.2854 207.542 16.9738 206.833C17.6623 206.123 18.5443 205.758 19.5984 205.758C20.6526 205.758 21.5346 206.123 22.223 206.833C22.9115 207.542 23.2557 208.445 23.2557 209.542C23.2557 210.638 22.9115 211.541 22.223 212.272C21.5346 213.003 20.6526 213.369 19.5984 213.369C18.5443 213.369 17.6623 213.003 16.9738 212.272ZM26.5042 212.272C25.8157 211.541 25.4715 210.638 25.4715 209.542C25.4715 208.445 25.8157 207.542 26.5042 206.833C27.1926 206.123 28.0746 205.758 29.1288 205.758C30.1829 205.758 31.0649 206.123 31.7534 206.833C32.4418 207.542 32.786 208.445 32.786 209.542C32.786 210.638 32.4418 211.541 31.7534 212.272C31.0649 213.003 30.1829 213.369 29.1288 213.369C28.0746 213.369 27.1926 213.003 26.5042 212.272Z" fill="white"/>
<path d="M71.8754 243.619C71.8754 245.791 71.4667 246.866 70.6707 246.866H56.5581V202.21H63.4853V240.416H70.6707C71.4882 240.416 71.8754 241.491 71.8754 243.619Z" fill="white"/>
<path d="M95.4751 243.619C95.4751 245.791 95.0664 246.866 94.2704 246.866H90.9574C87.5368 246.866 84.7186 246.006 82.5242 244.264C80.6311 245.984 77.7268 246.866 73.7899 246.866H70.7135C69.9175 246.866 69.5088 245.791 69.5088 243.619C69.5088 241.491 69.9175 240.416 70.7135 240.416H73.2521C75.4249 240.416 76.9093 239.986 77.7053 239.126C78.5013 238.266 78.91 236.761 78.91 234.632V217.583H85.8372V234.697C85.8372 236.503 85.6651 238.115 85.2994 239.513C86.3536 240.115 87.6013 240.416 89.1072 240.416H94.2919C95.0664 240.416 95.4751 241.491 95.4751 243.619ZM74.9946 258.024C74.3062 257.293 73.962 256.39 73.962 255.294C73.962 254.197 74.3062 253.294 74.9946 252.585C75.6831 251.875 76.5651 251.51 77.6192 251.51C78.6734 251.51 79.5554 251.875 80.2438 252.585C80.9322 253.294 81.2765 254.197 81.2765 255.294C81.2765 256.39 80.9322 257.293 80.2438 258.024C79.5554 258.755 78.6734 259.121 77.6192 259.121C76.5651 259.121 75.6831 258.755 74.9946 258.024ZM84.5249 258.024C83.8365 257.293 83.4923 256.39 83.4923 255.294C83.4923 254.197 83.8365 253.294 84.5249 252.585C85.2134 251.875 86.0954 251.51 87.1495 251.51C88.2037 251.51 89.0857 251.875 89.7741 252.585C90.4626 253.294 90.8068 254.197 90.8068 255.294C90.8068 256.39 90.4626 257.293 89.7741 258.024C89.0857 258.755 88.2037 259.121 87.1495 259.121C86.0954 259.121 85.2134 258.755 84.5249 258.024Z" fill="white"/>
<path d="M127.659 240.416L126.691 246.866H94.2492C93.4532 246.866 93.0444 245.791 93.0444 243.619C93.0444 241.491 93.4532 240.416 94.2492 240.416H118.193V231.257C118.193 228.204 117.225 225.774 115.267 223.968C113.31 222.162 110.707 221.259 107.458 221.259C103.887 221.259 100.553 222.356 97.4546 224.57L94.4428 218.658C98.3797 216.078 102.725 214.809 107.48 214.809C110.9 214.809 113.934 215.519 116.623 216.916C119.312 218.314 121.377 220.27 122.905 222.764C124.411 225.258 125.164 228.096 125.164 231.257V240.416H127.659ZM104.145 258.863C103.392 258.067 103.005 257.057 103.005 255.853C103.005 254.649 103.392 253.66 104.145 252.864C104.898 252.069 105.866 251.682 107.049 251.682C108.211 251.682 109.179 252.069 109.954 252.864C110.707 253.638 111.094 254.649 111.094 255.853C111.094 257.057 110.707 258.067 109.954 258.863C109.179 259.658 108.233 260.067 107.049 260.067C105.866 260.067 104.92 259.658 104.145 258.863Z" fill="white"/>
<path d="M151.302 243.619C151.302 245.791 150.893 246.866 150.097 246.866H143.471V246.995C143.471 251.209 142.331 254.52 140.029 256.885C137.727 259.25 134.586 260.475 130.563 260.561L129.487 254.047C131.983 254.197 133.768 253.724 134.887 252.628C135.984 251.531 136.544 249.639 136.544 246.995V217.583H143.471V240.416H150.097C150.914 240.416 151.302 241.491 151.302 243.619Z" fill="white"/>
<path d="M178.451 218.572C181.377 221.087 183.679 224.506 185.335 228.827C186.992 233.149 187.702 237.879 187.508 243.017C184.733 244.264 181.743 245.21 178.559 245.877C175.353 246.543 172.47 246.866 169.91 246.866C166.059 246.866 162.295 246.049 158.637 244.393C156.637 246.049 154.077 246.866 150.979 246.866H150.14C149.344 246.866 148.935 245.791 148.935 243.619C148.935 241.491 149.344 240.416 150.14 240.416H150.979C152.27 240.416 153.281 240.115 154.034 239.491C154.787 238.868 155.238 237.879 155.454 236.503L155.626 234.933C155.991 231.751 156.508 228.784 157.153 226.011C157.82 223.237 159.111 220.679 161.004 218.335C162.919 215.992 165.565 214.809 168.942 214.809C172.341 214.809 175.504 216.056 178.451 218.572ZM169.932 240.416C173.159 240.416 176.665 239.835 180.495 238.674C180.215 235.578 179.484 232.697 178.322 230.031C177.16 227.365 175.762 225.237 174.127 223.646C172.492 222.055 170.857 221.259 169.222 221.259C167.651 221.259 166.425 221.969 165.522 223.409C164.618 224.828 163.994 226.484 163.628 228.333C163.263 230.182 162.94 232.375 162.66 234.912L162.295 237.814L162.123 238.717C164.597 239.835 167.2 240.416 169.932 240.416Z" fill="white"/>
<path d="M226.684 243.619C226.684 245.791 226.275 246.866 225.479 246.866H222.402C218.229 246.866 215.174 245.877 213.238 243.877C211.302 241.899 210.334 238.825 210.334 234.697V234.095C208.634 234.546 206.891 234.761 205.084 234.761C203.234 234.761 201.47 234.546 199.771 234.095V246.995C199.771 251.209 198.63 254.52 196.329 256.885C194.027 259.25 190.886 260.475 186.863 260.561L185.787 254.047C188.283 254.197 190.068 253.724 191.187 252.628C192.284 251.531 192.843 249.639 192.843 246.995V217.583H199.771V227.645C201.449 228.096 203.234 228.311 205.084 228.311C206.891 228.311 208.634 228.096 210.334 227.645V217.583H217.282V234.632C217.282 236.761 217.691 238.266 218.487 239.126C219.283 239.986 220.789 240.416 222.94 240.416H225.479C226.275 240.416 226.684 241.491 226.684 243.619ZM210.355 258.863C209.581 258.067 209.215 257.057 209.215 255.853C209.215 254.649 209.602 253.66 210.355 252.864C211.108 252.09 212.076 251.682 213.259 251.682C214.421 251.682 215.389 252.069 216.164 252.864C216.917 253.638 217.304 254.649 217.304 255.853C217.304 257.057 216.917 258.067 216.164 258.863C215.389 259.658 214.443 260.067 213.259 260.067C212.076 260.067 211.108 259.658 210.355 258.863Z" fill="white"/>
<path d="M245.013 243.619C245.013 245.791 244.604 246.866 243.808 246.866H225.479C224.683 246.866 224.274 245.791 224.274 243.619C224.274 241.491 224.683 240.416 225.479 240.416H230.125V202.21H237.053V240.416H243.808C244.625 240.416 245.013 241.491 245.013 243.619Z" fill="white"/>
<path d="M255.382 202.21V246.866H243.808C243.012 246.866 242.604 245.791 242.604 243.619C242.604 241.491 243.012 240.416 243.808 240.416H248.455V202.21H255.382Z" fill="white"/>
<defs>
<clipPath id="clip0_227_208">
<rect width="159" height="121" fill="white" transform="translate(48)"/>
</clipPath>
</defs>
</svg>
