<svg width="276" height="258" viewBox="0 0 276 258" fill="none" xmlns="http://www.w3.org/2000/svg">
<path d="M275.043 181.04V230H268.323V181.04H275.043Z" fill="white"/>
<path d="M247.118 230H244.494V224.112L246.094 222.576C248.718 222.576 250.446 222 251.278 220.912C252.174 219.76 252.622 217.456 252.622 214.064V181.04H259.406V215.024C259.406 225.2 255.502 230 247.118 230Z" fill="white"/>
<path d="M234.112 191.472C234.112 193.584 232.384 195.312 230.272 195.312C228.16 195.312 226.432 193.584 226.432 191.472C226.432 189.232 228.16 187.568 230.272 187.568C232.384 187.568 234.112 189.232 234.112 191.472ZM217.152 230H213.056V224.112L214.656 222.576H221.12C218.56 219.952 217.152 216.816 217.152 213.424C217.152 205.488 223.488 199.344 230.528 199.344C237.888 199.344 243.392 205.68 243.392 213.04C243.392 216.56 241.856 219.888 239.232 222.512C240.064 222.576 241.088 222.576 242.048 222.576H246.08V228.4L244.48 230H242.624C238.016 230 233.664 229.296 230.016 227.952C226.368 229.296 221.952 230 217.152 230ZM222.784 213.36C222.784 217.008 225.92 219.76 231.04 221.232C235.648 219.888 237.76 217.328 237.76 213.808C237.76 211.952 237.056 210.352 235.648 208.944C234.304 207.472 232.448 206.768 230.144 206.768C225.6 206.768 222.784 210.032 222.784 213.36Z" fill="white"/>
<path d="M214.629 228.464L213.029 230H206.181V224.112L207.781 222.576H214.629V228.464Z" fill="white"/>
<path d="M207.754 228.464L206.154 230H199.306V224.112L200.906 222.576H207.754V228.464Z" fill="white"/>
<path d="M200.879 228.464L199.279 230H192.431V224.112L194.031 222.576H200.879V228.464Z" fill="white"/>
<path d="M194.004 228.464L192.404 230H185.556V224.112L187.156 222.576H194.004V228.464Z" fill="white"/>
<path d="M187.129 228.464L185.529 230H178.681V224.112L180.281 222.576H187.129V228.464Z" fill="white"/>
<path d="M180.254 228.464L178.654 230H171.806V224.112L173.406 222.576H180.254V228.464Z" fill="white"/>
<path d="M173.379 228.464L171.779 230H164.931V224.112L166.531 222.576H173.379V228.464Z" fill="white"/>
<path d="M166.504 228.464L164.904 230H158.056V224.112L159.656 222.576H166.504V228.464Z" fill="white"/>
<path d="M159.629 228.464L158.029 230H151.181V224.112L152.781 222.576H159.629V228.464Z" fill="white"/>
<path d="M152.754 228.464L151.154 230H144.306V224.112L145.906 222.576H152.754V228.464Z" fill="white"/>
<path d="M145.879 228.464L144.279 230H137.431V224.112L139.031 222.576H145.879V228.464Z" fill="white"/>
<path d="M139.004 228.464L137.404 230H130.556V224.112L132.156 222.576H139.004V228.464Z" fill="white"/>
<path d="M132.129 228.464L130.529 230H123.681V224.112L125.281 222.576H132.129V228.464Z" fill="white"/>
<path d="M125.254 228.464L123.654 230H116.806V224.112L118.406 222.576H125.254V228.464Z" fill="white"/>
<path d="M118.379 228.464L116.779 230H109.931V224.112L111.531 222.576H118.379V228.464Z" fill="white"/>
<path d="M111.504 228.464L109.904 230H103.056V224.112L104.656 222.576H111.504V228.464Z" fill="white"/>
<path d="M104.629 228.464L103.029 230H96.1812V224.112L97.7812 222.576H104.629V228.464Z" fill="white"/>
<path d="M97.7542 228.464L96.1542 230H89.3062V224.112L90.9062 222.576H97.7542V228.464Z" fill="white"/>
<path d="M90.8792 228.464L89.2792 230H82.4312V224.112L84.0312 222.576H90.8792V228.464Z" fill="white"/>
<path d="M84.0042 228.464L82.4042 230H75.5562V224.112L77.1562 222.576H84.0042V228.464Z" fill="white"/>
<path d="M77.1292 228.464L75.5292 230H68.6812V224.112L70.2812 222.576H77.1292V228.464Z" fill="white"/>
<path d="M70.2542 228.464L68.6542 230H61.8062V224.112L63.4062 222.576H70.2542V228.464Z" fill="white"/>
<path d="M63.3792 228.464L61.7792 230H54.9312V224.112L56.5312 222.576H63.3792V228.464Z" fill="white"/>
<path d="M37.5326 194.992C37.5326 197.104 35.8046 198.832 33.6926 198.832C31.4526 198.832 29.7886 197.104 29.7886 194.992C29.7886 192.88 31.4526 191.088 33.6926 191.088C35.8046 191.088 37.5326 192.88 37.5326 194.992ZM44.0606 230.832C44.0606 239.408 34.2046 245.296 21.4046 245.296C7.26056 245.296 0.476562 239.728 0.476562 228.144C0.476562 225.328 0.860563 222.32 1.43656 219.312H7.83656C7.26056 222.064 6.94056 224.624 6.94056 226.736C6.94056 234.16 11.7406 237.68 22.0446 237.68C31.1326 237.68 37.9806 235.184 37.9806 231.6C37.9806 229.616 36.4446 228.528 32.1566 227.952L24.6046 226.864C18.4606 226.032 15.7086 222.704 15.7086 218.16C15.7086 210.224 24.6686 202.864 33.7566 202.864C37.4686 202.864 40.4766 203.824 42.7166 205.68C44.9566 207.536 47.0686 210.672 48.9246 214.96L50.3326 218.224C51.8046 221.616 53.0206 222.576 56.5406 222.576V228.4L54.9406 230C52.2526 230 50.2046 229.424 48.7326 228.272C47.2606 227.056 45.7886 224.688 44.2526 221.104L42.9086 218.032C40.5406 212.208 37.4046 210.352 32.2846 210.352C26.7806 210.352 21.7246 213.232 21.7246 216.56C21.7246 218.352 23.0686 219.184 26.4606 219.76L34.5246 220.976C41.6926 222 44.0606 225.648 44.0606 230.832ZM29.9806 253.744C29.9806 255.856 28.3806 257.584 26.1406 257.584C24.0286 257.584 22.3006 255.856 22.3006 253.744C22.3006 251.504 24.0286 249.84 26.1406 249.84C28.3806 249.84 29.9806 251.504 29.9806 253.744ZM20.5086 253.744C20.5086 255.856 18.7806 257.584 16.6686 257.584C14.5566 257.584 12.8286 255.856 12.8286 253.744C12.8286 251.504 14.5566 249.84 16.6686 249.84C18.7806 249.84 20.5086 251.504 20.5086 253.744Z" fill="white"/>
<path d="M210.262 151.04V200H203.542V151.04H210.262Z" fill="white"/>
<path d="M182.336 200H179.712V194.112L181.312 192.576C183.936 192.576 185.664 192 186.496 190.912C187.392 189.76 187.84 187.456 187.84 184.064V151.04H194.624V185.024C194.624 195.2 190.72 200 182.336 200Z" fill="white"/>
<path d="M181.295 192.576V198.4L179.695 200C175.855 200 173.487 198.72 171.375 195.328C167.471 198.72 162.543 200.704 157.615 200.704C149.487 200.64 146.095 196.928 146.095 188.8H152.239C152.303 191.808 153.711 193.216 158.063 193.216C162.223 193.216 166.191 192.192 169.071 190.464L168.367 188.672L160.623 167.808H168.175L175.023 186.368C175.855 188.672 176.623 190.272 177.455 191.232C178.287 192.128 179.567 192.576 181.295 192.576Z" fill="white"/>
<path d="M117.074 200H109.714V194.112L111.314 192.576H119.762C116.178 190.336 113.874 186.624 113.874 181.952C113.874 174.08 119.442 168.32 127.378 168.32C135.058 168.32 140.114 172.736 140.562 180.992H134.482C133.65 177.728 130.834 175.744 127.186 175.744C122.578 175.744 119.57 178.24 119.57 182.784C119.57 187.456 124.05 190.784 130.514 190.784C133.138 190.784 134.93 190.656 138.706 189.952L142.418 189.312V196.672L138.898 197.44C130.962 199.232 124.434 200 117.074 200Z" fill="white"/>
<path d="M111.237 198.4L109.637 200C105.605 200 102.597 198.144 99.7809 192.768C98.4369 197.952 94.5969 200.64 88.9009 200.64C83.5249 200.64 79.6849 198.208 78.5969 193.344C76.4849 198.4 73.0929 200 67.5249 200V194.112L69.1249 192.576C72.5169 192.576 74.1169 191.104 75.5889 187.712L77.6369 182.976C80.6449 176.32 84.8689 173.056 89.9889 173.056C92.8689 173.056 95.3649 173.888 97.3489 175.488C99.3969 177.088 101.381 180.032 103.365 184.32L104.005 185.792C106.309 190.976 108.101 192.576 111.237 192.576V198.4ZM82.0529 187.456C82.0529 191.04 84.4849 193.216 89.0289 193.216C94.0849 193.216 97.0929 191.552 97.8609 188.544L97.4129 187.456C95.3009 182.336 92.6769 180.416 89.0929 180.416C84.9329 180.416 82.0529 183.808 82.0529 187.456Z" fill="white"/>
<path d="M69.0979 198.464L67.4979 200H60.6499V194.112L62.2499 192.576H69.0979V198.464Z" fill="white"/>
<path d="M137.936 61.7689C152.023 61.7689 163.498 73.584 163.532 88.1108C163.532 91.1922 162.91 94.0976 161.954 96.8445H180.597C189.129 96.8445 189.12 91.1394 189.129 88.1812V88.0403C189.052 58.978 166.118 35.3565 137.936 35.3565C109.754 35.3565 86.8113 58.9868 86.7431 88.0403V88.1812C86.7857 103.932 93.5773 118.045 104.243 127.712C104.063 126.241 103.807 124.789 103.807 123.266C103.807 113.326 107.835 104.381 114.259 97.9802C113.056 94.9251 112.348 91.6148 112.34 88.1196C112.374 73.5928 123.849 61.7777 137.936 61.7777V61.7689ZM94.1831 35.4622C107.229 22.8459 124.31 16.6126 142.219 17.7571C175.699 19.9933 201.936 50.0594 201.936 86.2003C201.936 101.784 189.658 114.453 174.556 114.453H154.028C151.946 107.154 145.478 101.784 137.731 101.784C128.303 101.784 120.667 109.663 120.667 119.392C120.667 129.12 128.303 137 137.731 137C142.322 137 146.477 135.107 149.54 132.061H174.556C199.06 132.061 219 111.486 219 86.2003C218.991 40.7975 185.75 3.01021 143.311 0.184091C120.582 -1.33902 99.0209 6.6287 82.5111 22.617C67.2642 37.3639 58.1006 57.7982 57 79.245H74.0899C75.1394 62.4908 82.1784 47.0748 94.1831 35.4622Z" fill="white"/>
</svg>
