<svg width="204" height="55" viewBox="0 0 204 55" fill="none" xmlns="http://www.w3.org/2000/svg">
<path d="M170.686 24.7977C176.338 24.7977 180.943 29.541 180.956 35.3729C180.956 36.61 180.707 37.7764 180.323 38.8792H187.803C191.227 38.8792 191.223 36.5888 191.227 35.4012V35.3447C191.196 23.6773 181.994 14.1942 170.686 14.1942C159.379 14.1942 150.173 23.6808 150.146 35.3447V35.4012C150.163 41.7244 152.888 47.3902 157.167 51.2711C157.095 50.6808 156.993 50.0977 156.993 49.4862C156.993 45.4957 158.609 41.9047 161.186 39.3351C160.704 38.1086 160.419 36.7797 160.416 35.3765C160.43 29.5445 165.034 24.8013 170.686 24.8013V24.7977ZM153.131 14.2366C158.365 9.1717 165.219 6.66928 172.405 7.12876C185.838 8.02653 196.365 20.0968 196.365 34.606C196.365 40.862 191.439 45.9482 185.379 45.9482H177.143C176.307 43.0181 173.713 40.862 170.604 40.862C166.821 40.862 163.757 44.0254 163.757 47.931C163.757 51.8366 166.821 55 170.604 55C172.446 55 174.113 54.2401 175.342 53.0172H185.379C195.211 53.0172 203.212 44.757 203.212 34.606C203.208 16.3785 189.871 1.20848 172.843 0.0739052C163.723 -0.537563 155.072 2.66116 148.448 9.07981C142.33 15.0001 138.654 23.2037 138.212 31.8137H145.069C145.49 25.0875 148.314 18.8986 153.131 14.2366Z" fill="#0C58D8"/>
<path d="M128.703 18V40.95H125.553V18H128.703Z" fill="white"/>
<path d="M115.613 40.95H114.383V38.19L115.133 37.47C116.363 37.47 117.173 37.2 117.563 36.69C117.983 36.15 118.193 35.07 118.193 33.48V18H121.373V33.93C121.373 38.7 119.543 40.95 115.613 40.95Z" fill="white"/>
<path d="M109.516 22.8901C109.516 23.8801 108.706 24.6901 107.716 24.6901C106.726 24.6901 105.916 23.8801 105.916 22.8901C105.916 21.8401 106.726 21.0601 107.716 21.0601C108.706 21.0601 109.516 21.8401 109.516 22.8901ZM101.566 40.9501H99.6465V38.1901L100.396 37.4701H103.426C102.226 36.2401 101.566 34.7701 101.566 33.1801C101.566 29.4601 104.536 26.5801 107.836 26.5801C111.286 26.5801 113.866 29.5501 113.866 33.0001C113.866 34.6501 113.146 36.2101 111.916 37.4401C112.306 37.4701 112.786 37.4701 113.236 37.4701H115.126V40.2001L114.376 40.9501H113.506C111.346 40.9501 109.306 40.6201 107.596 39.9901C105.886 40.6201 103.816 40.9501 101.566 40.9501ZM104.206 33.1501C104.206 34.8601 105.676 36.1501 108.076 36.8401C110.236 36.2101 111.226 35.0101 111.226 33.3601C111.226 32.4901 110.896 31.7401 110.236 31.0801C109.606 30.3901 108.736 30.0601 107.656 30.0601C105.526 30.0601 104.206 31.5901 104.206 33.1501Z" fill="white"/>
<path d="M100.384 40.23L99.6338 40.95H96.4238V38.19L97.1738 37.47H100.384V40.23Z" fill="white"/>
<path d="M97.1612 40.23L96.4112 40.95H93.2012V38.19L93.9512 37.47H97.1612V40.23Z" fill="white"/>
<path d="M93.9385 40.23L93.1885 40.95H89.9785V38.19L90.7285 37.47H93.9385V40.23Z" fill="white"/>
<path d="M90.7159 40.23L89.9659 40.95H86.7559V38.19L87.5059 37.47H90.7159V40.23Z" fill="white"/>
<path d="M87.4932 40.23L86.7432 40.95H83.5332V38.19L84.2832 37.47H87.4932V40.23Z" fill="white"/>
<path d="M84.2705 40.23L83.5205 40.95H80.3105V38.19L81.0605 37.47H84.2705V40.23Z" fill="white"/>
<path d="M81.0479 40.23L80.2979 40.95H77.0879V38.19L77.8379 37.47H81.0479V40.23Z" fill="white"/>
<path d="M77.8252 40.23L77.0752 40.95H73.8652V38.19L74.6152 37.47H77.8252V40.23Z" fill="white"/>
<path d="M74.6026 40.23L73.8526 40.95H70.6426V38.19L71.3926 37.47H74.6026V40.23Z" fill="white"/>
<path d="M71.3799 40.23L70.6299 40.95H67.4199V38.19L68.1699 37.47H71.3799V40.23Z" fill="white"/>
<path d="M68.1573 40.23L67.4073 40.95H64.1973V38.19L64.9473 37.47H68.1573V40.23Z" fill="white"/>
<path d="M64.9346 40.23L64.1846 40.95H60.9746V38.19L61.7246 37.47H64.9346V40.23Z" fill="white"/>
<path d="M61.712 40.23L60.962 40.95H57.752V38.19L58.502 37.47H61.712V40.23Z" fill="white"/>
<path d="M58.4893 40.23L57.7393 40.95H54.5293V38.19L55.2793 37.47H58.4893V40.23Z" fill="white"/>
<path d="M55.2666 40.23L54.5166 40.95H51.3066V38.19L52.0566 37.47H55.2666V40.23Z" fill="white"/>
<path d="M52.044 40.23L51.294 40.95H48.084V38.19L48.834 37.47H52.044V40.23Z" fill="white"/>
<path d="M48.8213 40.23L48.0713 40.95H44.8613V38.19L45.6113 37.47H48.8213V40.23Z" fill="white"/>
<path d="M45.5987 40.23L44.8487 40.95H41.6387V38.19L42.3887 37.47H45.5987V40.23Z" fill="white"/>
<path d="M42.376 40.23L41.626 40.95H38.416V38.19L39.166 37.47H42.376V40.23Z" fill="white"/>
<path d="M39.1534 40.23L38.4034 40.95H35.1934V38.19L35.9434 37.47H39.1534V40.23Z" fill="white"/>
<path d="M35.9307 40.23L35.1807 40.95H31.9707V38.19L32.7207 37.47H35.9307V40.23Z" fill="white"/>
<path d="M32.708 40.23L31.958 40.95H28.748V38.19L29.498 37.47H32.708V40.23Z" fill="white"/>
<path d="M29.4854 40.23L28.7354 40.95H25.5254V38.19L26.2754 37.47H29.4854V40.23Z" fill="white"/>
<path d="M17.37 24.54C17.37 25.53 16.56 26.34 15.57 26.34C14.52 26.34 13.74 25.53 13.74 24.54C13.74 23.55 14.52 22.71 15.57 22.71C16.56 22.71 17.37 23.55 17.37 24.54ZM20.43 41.34C20.43 45.36 15.81 48.12 9.81 48.12C3.18 48.12 0 45.51 0 40.08C0 38.76 0.18 37.35 0.45 35.94H3.45C3.18 37.23 3.03 38.43 3.03 39.42C3.03 42.9 5.28 44.55 10.11 44.55C14.37 44.55 17.58 43.38 17.58 41.7C17.58 40.77 16.86 40.26 14.85 39.99L11.31 39.48C8.43 39.09 7.14 37.53 7.14 35.4C7.14 31.68 11.34 28.23 15.6 28.23C17.34 28.23 18.75 28.68 19.8 29.55C20.85 30.42 21.84 31.89 22.71 33.9L23.37 35.43C24.06 37.02 24.63 37.47 26.28 37.47V40.2L25.53 40.95C24.27 40.95 23.31 40.68 22.62 40.14C21.93 39.57 21.24 38.46 20.52 36.78L19.89 35.34C18.78 32.61 17.31 31.74 14.91 31.74C12.33 31.74 9.96 33.09 9.96 34.65C9.96 35.49 10.59 35.88 12.18 36.15L15.96 36.72C19.32 37.2 20.43 38.91 20.43 41.34ZM13.83 52.08C13.83 53.07 13.08 53.88 12.03 53.88C11.04 53.88 10.23 53.07 10.23 52.08C10.23 51.03 11.04 50.25 12.03 50.25C13.08 50.25 13.83 51.03 13.83 52.08ZM9.39 52.08C9.39 53.07 8.58 53.88 7.59 53.88C6.6 53.88 5.79 53.07 5.79 52.08C5.79 51.03 6.6 50.25 7.59 50.25C8.58 50.25 9.39 51.03 9.39 52.08Z" fill="white"/>
<path d="M98.3375 0V22.95H95.1875V0H98.3375Z" fill="white"/>
<path d="M85.2466 22.95H84.0166V20.19L84.7666 19.47C85.9966 19.47 86.8066 19.2 87.1966 18.69C87.6166 18.15 87.8266 17.07 87.8266 15.48V0H91.0066V15.93C91.0066 20.7 89.1766 22.95 85.2466 22.95Z" fill="white"/>
<path d="M84.7588 19.4701V22.2001L84.0088 22.9501C82.2088 22.9501 81.0988 22.3501 80.1088 20.7601C78.2788 22.3501 75.9688 23.2801 73.6588 23.2801C69.8488 23.2501 68.2588 21.5101 68.2588 17.7001H71.1388C71.1688 19.1101 71.8288 19.7701 73.8688 19.7701C75.8188 19.7701 77.6788 19.2901 79.0288 18.4801L78.6988 17.6401L75.0688 7.86011H78.6088L81.8188 16.5601C82.2088 17.6401 82.5688 18.3901 82.9588 18.8401C83.3488 19.2601 83.9488 19.4701 84.7588 19.4701Z" fill="white"/>
<path d="M54.6551 22.9501H51.2051V20.1901L51.9551 19.4701H55.9151C54.2351 18.4201 53.1551 16.6801 53.1551 14.4901C53.1551 10.8001 55.7651 8.1001 59.4851 8.1001C63.0851 8.1001 65.4551 10.1701 65.6651 14.0401H62.8151C62.4251 12.5101 61.1051 11.5801 59.3951 11.5801C57.2351 11.5801 55.8251 12.7501 55.8251 14.8801C55.8251 17.0701 57.9251 18.6301 60.9551 18.6301C62.1851 18.6301 63.0251 18.5701 64.7951 18.2401L66.5351 17.9401V21.3901L64.8851 21.7501C61.1651 22.5901 58.1051 22.9501 54.6551 22.9501Z" fill="white"/>
<path d="M51.9187 22.2001L51.1687 22.9501C49.2787 22.9501 47.8687 22.0801 46.5487 19.5601C45.9187 21.9901 44.1187 23.2501 41.4487 23.2501C38.9287 23.2501 37.1287 22.1101 36.6187 19.8301C35.6287 22.2001 34.0387 22.9501 31.4287 22.9501V20.1901L32.1787 19.4701C33.7687 19.4701 34.5187 18.7801 35.2087 17.1901L36.1687 14.9701C37.5787 11.8501 39.5587 10.3201 41.9587 10.3201C43.3087 10.3201 44.4787 10.7101 45.4087 11.4601C46.3687 12.2101 47.2987 13.5901 48.2287 15.6001L48.5287 16.2901C49.6087 18.7201 50.4487 19.4701 51.9187 19.4701V22.2001ZM38.2387 17.0701C38.2387 18.7501 39.3787 19.7701 41.5087 19.7701C43.8787 19.7701 45.2887 18.9901 45.6487 17.5801L45.4387 17.0701C44.4487 14.6701 43.2187 13.7701 41.5387 13.7701C39.5887 13.7701 38.2387 15.3601 38.2387 17.0701Z" fill="white"/>
<path d="M32.1661 22.23L31.4161 22.95H28.2061V20.19L28.9561 19.47H32.1661V22.23Z" fill="white"/>
</svg>
