<svg width="66" height="55" viewBox="0 0 66 55" fill="none" xmlns="http://www.w3.org/2000/svg">
<path d="M32.488 24.7977C38.14 24.7977 42.7445 29.541 42.7582 35.3729C42.7582 36.61 42.5083 37.7764 42.1248 38.8792H49.605C53.0284 38.8792 53.0249 36.5888 53.0284 35.4012V35.3447C52.9976 23.6773 43.7955 14.1942 32.488 14.1942C21.1805 14.1942 11.975 23.6808 11.9476 35.3447V35.4012C11.9647 41.7244 14.6898 47.3902 18.969 51.2711C18.8971 50.6808 18.7944 50.0977 18.7944 49.4862C18.7944 45.4957 20.4103 41.9047 22.9881 39.3351C22.5054 38.1086 22.2212 36.7797 22.2178 35.3765C22.2315 29.5445 26.836 24.8013 32.488 24.8013V24.7977ZM14.9328 14.2366C20.1672 9.1717 27.0208 6.66928 34.2065 7.12876C47.6399 8.02653 58.1669 20.0968 58.1669 34.6059C58.1669 40.862 53.2406 45.9482 47.1812 45.9482H38.9445C38.1092 43.0181 35.5143 40.862 32.4058 40.862C28.623 40.862 25.559 44.0254 25.559 47.931C25.559 51.8366 28.623 55 32.4058 55C34.2476 55 35.9148 54.2401 37.1438 53.0171H47.1812C57.0132 53.0171 65.0137 44.757 65.0137 34.6059C65.0103 16.3785 51.6727 1.20848 34.6447 0.0739052C25.5248 -0.537563 16.8739 2.66116 10.2496 9.07981C4.13202 15.0001 0.45529 23.2037 0.0136719 31.8137H6.87073C7.29181 25.0875 10.1161 18.8986 14.9328 14.2366Z" fill="#0C58D8"/>
</svg>
