<svg width="551" height="155" viewBox="0 0 551 155" fill="none" xmlns="http://www.w3.org/2000/svg">
<g clip-path="url(#clip0_363_1865)">
<path d="M550.562 140.137C550.672 139.806 550.754 139.475 550.836 139.144C550.891 138.951 550.919 138.758 550.974 138.565C551.056 138.151 551.111 137.738 551.166 137.324C551.193 137.186 551.221 137.048 551.221 136.883C551.221 136.828 551.248 136.773 551.248 136.718C551.276 136.525 551.248 136.359 551.276 136.166C551.303 135.725 551.331 135.284 551.303 134.842C551.303 134.567 551.276 134.319 551.248 134.043C551.221 133.767 551.221 133.519 551.193 133.243C551.166 133.078 551.138 132.912 551.111 132.747C551.084 132.609 551.056 132.471 551.056 132.306C550.974 131.754 550.836 131.203 550.699 130.679C550.672 130.623 550.672 130.541 550.644 130.486C550.479 129.907 550.287 129.355 550.068 128.804C549.985 128.61 549.903 128.417 549.82 128.224C549.683 127.894 549.518 127.59 549.354 127.287C549.216 127.039 549.079 126.791 548.942 126.542C548.832 126.349 548.695 126.156 548.585 125.991C548.201 125.384 547.761 124.805 547.294 124.254C547.24 124.198 547.212 124.143 547.157 124.088C546.883 123.757 546.581 123.454 546.279 123.151C546.224 123.095 546.169 123.04 546.086 122.985C545.867 122.765 545.647 122.516 545.4 122.323C540.76 118.325 537.822 112.672 537.822 106.495V104.786C537.822 98.6363 540.76 92.9834 545.4 88.9574C545.455 88.9022 545.51 88.8471 545.537 88.8195C545.867 88.5438 546.141 88.2405 546.443 87.9371C546.581 87.7993 546.718 87.6614 546.855 87.5235C547.267 87.0547 547.679 86.5859 548.036 86.0896C548.036 86.062 548.063 86.062 548.063 86.0344C548.42 85.5381 548.75 85.0417 549.052 84.5178C549.162 84.3524 549.244 84.1593 549.326 83.9663C549.518 83.6078 549.711 83.2218 549.875 82.8357C549.985 82.6151 550.068 82.3669 550.15 82.1463C550.287 81.7879 550.425 81.4294 550.534 81.0433C550.617 80.7952 550.672 80.547 550.727 80.2988C550.809 79.9403 550.891 79.5543 550.974 79.1682C551.029 78.8925 551.056 78.6443 551.111 78.3685C551.166 77.9825 551.193 77.5964 551.221 77.1828C551.248 76.9071 551.248 76.6589 551.276 76.3831C551.276 75.9695 551.276 75.5283 551.248 75.1147C551.248 74.9217 551.248 74.7286 551.221 74.5356C551.221 74.4529 551.193 74.3977 551.193 74.315C551.193 74.2598 551.193 74.2047 551.193 74.1495C551.166 73.9565 551.138 73.7635 551.111 73.5429C551.084 73.3223 551.056 73.1017 551.001 72.9087C550.946 72.6053 550.864 72.302 550.809 71.9987C550.754 71.8332 550.727 71.6678 550.672 71.5023C550.589 71.1714 550.479 70.8681 550.37 70.5372C550.315 70.3993 550.287 70.2614 550.232 70.1236C550.122 69.7927 549.985 69.4893 549.82 69.1584C549.766 69.0481 549.711 68.9103 549.656 68.8C549.518 68.4966 549.354 68.1933 549.189 67.89C549.134 67.7797 549.052 67.6418 548.997 67.5315C548.832 67.2558 548.64 66.98 548.475 66.7043C548.393 66.5664 548.31 66.4285 548.228 66.3182C548.063 66.07 547.871 65.8494 547.679 65.6012C547.569 65.4634 547.459 65.2979 547.322 65.16C547.157 64.967 546.965 64.774 546.8 64.581C546.635 64.4155 546.498 64.2501 546.333 64.0846C546.169 63.9192 546.004 63.7813 545.839 63.6158C545.647 63.4228 545.455 63.2574 545.263 63.0919C545.125 62.9816 544.961 62.8713 544.823 62.7334C544.576 62.5404 544.357 62.3749 544.109 62.1819C543.972 62.0992 543.862 62.0165 543.725 61.9062C543.451 61.7132 543.176 61.5477 542.901 61.3822C542.792 61.2995 542.654 61.2444 542.544 61.1892C542.242 61.0238 541.94 60.8583 541.638 60.7204C541.529 60.6653 541.391 60.6101 541.281 60.555C540.979 60.4171 540.65 60.2792 540.32 60.1414C540.183 60.0862 540.046 60.0586 539.909 60.0035C539.607 59.8932 539.277 59.7829 538.948 59.7002C538.783 59.645 538.618 59.6174 538.453 59.5623C538.151 59.4796 537.877 59.4244 537.575 59.3693C537.355 59.3417 537.135 59.3141 536.943 59.259C536.751 59.2314 536.559 59.1762 536.339 59.1762C536.284 59.1762 536.229 59.1762 536.174 59.1762C536.092 59.1762 536.037 59.1487 535.955 59.1487C535.763 59.1211 535.57 59.1487 535.378 59.1211C534.939 59.0935 534.527 59.0659 534.115 59.0935C533.841 59.0935 533.594 59.1211 533.319 59.1487C532.935 59.1762 532.523 59.2038 532.138 59.259C531.864 59.2865 531.617 59.3417 531.342 59.3968C530.958 59.4796 530.601 59.5623 530.216 59.645C529.969 59.7002 529.722 59.7829 529.475 59.838C529.091 59.9483 528.734 60.0862 528.377 60.2241C528.157 60.3068 527.91 60.3895 527.69 60.4998C519.316 64.1398 516.049 72.6329 505.835 72.6329H504.132C491.53 72.6329 481.48 61.4925 479.723 49.4698C477.636 34.9928 490.294 20.378 505.011 20.378C511.518 20.378 517.504 23.4388 521.869 28.2921C524.972 31.7389 529.448 33.9174 534.445 33.9174C544.411 33.9174 552.347 25.2588 551.221 15.0284C550.342 7.11432 543.862 0.772035 535.982 0.0550805C530.244 -0.468848 525.027 1.93019 521.622 5.90102C517.641 10.5612 512.012 13.5118 505.862 13.5118H504.16C498.037 13.5118 492.408 10.5612 488.4 5.90102C488.18 5.65284 487.96 5.43224 487.741 5.21164C487.686 5.15649 487.631 5.10134 487.576 5.01861C487.274 4.71528 486.972 4.41196 486.642 4.1362C486.587 4.08105 486.533 4.05348 486.505 4.0259C485.956 3.55713 485.379 3.11592 484.775 2.72987C484.583 2.61957 484.418 2.4817 484.226 2.37139C483.979 2.23352 483.732 2.09564 483.485 1.95777C483.183 1.79232 482.853 1.62686 482.551 1.48899C482.359 1.40626 482.167 1.32354 481.975 1.24081C481.426 1.02021 480.876 0.827185 480.3 0.661734C480.245 0.634159 480.163 0.634159 480.108 0.606584C479.586 0.468708 479.037 0.330832 478.488 0.248107C478.35 0.220532 478.186 0.192956 478.048 0.192956C477.884 0.165381 477.719 0.137806 477.554 0.110231C477.28 0.0826557 477.032 0.0826557 476.758 0.0550805C476.483 0.0275054 476.236 0.0275054 475.962 -6.98074e-05C475.522 -6.98074e-05 475.083 -6.98074e-05 474.644 0.0275054C474.451 0.0275054 474.287 0.0275054 474.095 0.0550805C474.04 0.0550805 473.985 0.0826557 473.93 0.0826557C473.793 0.110231 473.655 0.110231 473.518 0.137806C473.106 0.192956 472.694 0.248107 472.282 0.330832C472.09 0.358407 471.898 0.413558 471.706 0.468708C471.376 0.551433 471.047 0.634159 470.717 0.74446C470.498 0.827185 470.251 0.882335 470.031 0.965061C469.784 1.04779 469.564 1.13051 469.345 1.24081C465.61 2.75745 462.563 5.54254 460.696 9.07216C460.586 9.26519 460.476 9.45821 460.394 9.65124C460.284 9.87184 460.174 10.12 460.092 10.3682C459.954 10.6715 459.844 10.9748 459.735 11.2782C459.68 11.4712 459.597 11.6366 459.542 11.8297C459.405 12.2433 459.295 12.6845 459.186 13.0981C459.158 13.2084 459.131 13.2912 459.103 13.4015C458.993 13.953 458.883 14.4769 458.829 15.056C458.829 15.0835 458.829 15.0835 458.829 15.1111C458.801 15.4696 458.774 15.8556 458.774 16.2141C458.774 16.4623 458.746 16.7105 458.719 16.9862C458.719 17.2896 458.746 17.5929 458.774 17.8686C458.801 18.172 458.801 18.5029 458.829 18.8062C458.856 19.1095 458.911 19.3853 458.966 19.6886C459.021 19.9919 459.048 20.2953 459.103 20.5986C459.158 20.8743 459.24 21.1501 459.323 21.4258C459.405 21.7292 459.488 22.0325 459.57 22.3358C459.652 22.584 459.762 22.8322 459.872 23.0803C459.982 23.3837 460.092 23.687 460.229 23.9627C460.339 24.2109 460.476 24.4315 460.586 24.6797C460.723 24.9555 460.86 25.2588 461.025 25.5345C461.162 25.7551 461.327 25.9757 461.464 26.1963C461.629 26.4721 461.794 26.7203 461.986 26.996C462.151 27.2166 462.316 27.3821 462.48 27.6027C462.673 27.8508 462.865 28.099 463.084 28.3472C463.249 28.5402 463.441 28.7057 463.606 28.8711C463.826 29.0917 464.045 29.3399 464.32 29.5881C469.152 33.9725 472.2 39.9839 472.2 46.5468C472.2 53.0821 469.152 59.0935 464.32 63.478C462.837 64.8016 461.629 66.4009 460.696 68.1933C460.586 68.3863 460.476 68.5794 460.394 68.7724C460.284 68.993 460.174 69.2412 460.092 69.4893C459.954 69.7927 459.844 70.096 459.735 70.3993C459.68 70.5924 459.597 70.7578 459.542 70.9508C459.405 71.3645 459.295 71.8057 459.186 72.2193C459.158 72.3296 459.131 72.4123 459.103 72.5226C458.993 73.0741 458.883 73.598 458.829 74.1771C458.829 74.2047 458.829 74.2047 458.829 74.2323C458.801 74.5907 458.774 74.9492 458.774 75.3077C458.774 75.5835 458.719 75.8316 458.719 76.1074C458.719 76.4107 458.746 76.6865 458.774 76.9898C458.801 77.3207 458.801 77.624 458.829 77.9273C458.856 78.2031 458.911 78.4788 458.966 78.7822C459.021 79.0855 459.048 79.4164 459.131 79.7197C459.185 79.9955 459.268 80.2437 459.35 80.5194C459.433 80.8227 459.515 81.1536 459.597 81.457C459.68 81.7051 459.79 81.9533 459.899 82.2291C460.009 82.5324 460.119 82.8357 460.256 83.1115C460.366 83.3597 460.503 83.5803 460.613 83.8009C460.751 84.0766 460.888 84.3799 461.053 84.6557C461.19 84.8763 461.327 85.0693 461.464 85.2899C461.629 85.5657 461.821 85.8414 462.014 86.1172C462.178 86.3378 462.343 86.5308 462.508 86.7238C462.7 86.972 462.892 87.2202 463.112 87.4408C463.304 87.6338 463.496 87.8268 463.688 88.0199C463.908 88.2405 464.128 88.4611 464.347 88.6817C464.54 88.8747 464.759 89.0126 464.979 89.2056C465.226 89.3986 465.446 89.6192 465.693 89.7847C465.912 89.9501 466.16 90.088 466.379 90.2259C466.626 90.3913 466.873 90.5843 467.148 90.7222C467.368 90.8601 467.615 90.9704 467.862 91.0807C468.136 91.2186 468.411 91.384 468.713 91.5219C468.96 91.6322 469.207 91.7149 469.454 91.8252C469.756 91.9355 470.031 92.0734 470.36 92.1837C470.608 92.2664 470.882 92.3216 471.129 92.4043C471.431 92.487 471.761 92.5973 472.063 92.6525C472.337 92.7076 472.612 92.7352 472.886 92.7904C473.216 92.8455 473.518 92.9007 473.847 92.9558C474.122 92.9834 474.424 92.9834 474.699 93.011C475.028 93.0385 475.358 93.0661 475.687 93.0661C475.907 93.0661 476.154 93.0385 476.373 93.0385C476.758 93.011 477.17 93.011 477.527 92.9834C477.554 92.9834 477.554 92.9834 477.582 92.9834C478.131 92.9282 478.68 92.8179 479.229 92.7076C479.339 92.68 479.421 92.6525 479.531 92.6249C479.943 92.5146 480.382 92.4043 480.794 92.2664C480.986 92.2113 481.151 92.1285 481.343 92.0734C481.645 91.9631 481.947 91.8528 482.249 91.7149C482.496 91.6046 482.716 91.5219 482.963 91.4116C483.155 91.3289 483.348 91.2186 483.54 91.1083C485.297 90.1707 486.917 88.9298 488.235 87.4683C492.6 82.6151 498.586 79.5543 505.121 79.5543C517.916 79.5543 531.122 92.9282 531.122 105.696C531.122 117.966 518.328 131.809 505.944 131.809H504.242C498.119 131.809 492.491 128.859 488.482 124.198C485.077 120.2 479.861 117.829 474.122 118.353C466.242 119.042 459.735 125.412 458.883 133.326C457.758 143.556 465.72 152.215 475.66 152.215C480.657 152.215 485.132 150.036 488.235 146.589C492.6 141.736 498.586 138.675 505.121 138.675C511.628 138.675 517.614 141.736 521.979 146.617C522.199 146.838 522.419 147.058 522.638 147.279C522.83 147.472 522.995 147.665 523.187 147.83C523.407 148.051 523.654 148.216 523.901 148.409C524.121 148.575 524.313 148.768 524.533 148.933C524.78 149.099 525.027 149.264 525.302 149.43C525.521 149.595 525.768 149.761 525.988 149.899C526.235 150.036 526.51 150.174 526.784 150.312C527.031 150.45 527.278 150.588 527.553 150.698C527.828 150.836 528.102 150.919 528.404 151.029C528.679 151.139 528.926 151.25 529.2 151.332C529.475 151.415 529.777 151.498 530.079 151.581C530.354 151.663 530.628 151.746 530.93 151.801C531.232 151.856 531.534 151.911 531.836 151.939C532.138 151.994 532.413 152.049 532.715 152.077C533.017 152.105 533.319 152.105 533.648 152.132C533.95 152.16 534.252 152.187 534.582 152.187C534.829 152.187 535.049 152.16 535.296 152.16C535.68 152.132 536.065 152.132 536.422 152.105C536.449 152.105 536.449 152.105 536.476 152.105C537.026 152.049 537.575 151.939 538.124 151.829C538.234 151.801 538.316 151.774 538.426 151.746C538.865 151.636 539.277 151.525 539.689 151.388C539.881 151.332 540.046 151.25 540.238 151.195C540.54 151.084 540.842 150.974 541.144 150.836C541.391 150.726 541.611 150.643 541.858 150.533C542.05 150.45 542.242 150.34 542.435 150.229C545.949 148.354 548.722 145.293 550.232 141.543C550.315 141.323 550.425 141.074 550.507 140.854C550.397 140.606 550.479 140.358 550.562 140.137Z" fill="#B9B9B9"/>
<path d="M425.306 59.1763C413.17 58.1009 407.542 72.6605 395.186 72.6605H393.484C381.65 72.6605 368.306 59.2039 368.306 47.3741V45.6645C368.306 33.2556 382.281 20.378 394.362 20.378C400.87 20.378 406.855 23.4389 411.221 28.2921C414.323 31.739 418.799 33.9174 423.796 33.9174C433.763 33.9174 441.698 25.2588 440.572 15.0285C439.694 7.11438 433.214 0.772092 425.334 0.0551376C419.595 -0.468791 414.378 1.93025 410.974 5.90107C406.992 10.5613 401.364 13.5118 395.213 13.5118H393.511C387.388 13.5118 381.76 10.5613 377.751 5.90107C377.531 5.6529 377.312 5.43229 377.092 5.21169C377.037 5.15654 376.982 5.07382 376.927 5.01867C376.625 4.71534 376.323 4.41201 375.994 4.13626C375.939 4.08111 375.884 4.05354 375.829 3.99839C375.28 3.52961 374.703 3.08841 374.099 2.70235C373.907 2.59205 373.742 2.45418 373.55 2.34388C373.303 2.206 373.056 2.06812 372.809 1.93025C372.507 1.7648 372.177 1.59935 371.875 1.46147C371.683 1.37875 371.491 1.29602 371.299 1.21329C370.749 0.992693 370.2 0.799667 369.624 0.634216C369.569 0.606641 369.486 0.606641 369.431 0.579066C368.91 0.44119 368.361 0.303314 367.812 0.220589C367.674 0.193013 367.509 0.165438 367.372 0.165438C367.207 0.137863 367.043 0.110288 366.878 0.0827128C366.603 0.0551376 366.356 0.0551376 366.082 0.0275624C365.807 -1.27274e-05 365.56 -1.27274e-05 365.286 -0.0275879C364.846 -0.0275879 364.407 -0.0275879 363.968 -1.27274e-05C363.775 -1.27274e-05 363.611 -1.27274e-05 363.418 0.0275624C363.364 0.0275624 363.309 0.0551376 363.254 0.0551376C363.116 0.0827128 362.979 0.0827128 362.814 0.110288C362.403 0.165438 361.991 0.220589 361.579 0.303314C361.387 0.330889 361.194 0.38604 361.002 0.44119C360.673 0.523915 360.343 0.606641 360.014 0.716941C359.794 0.799667 359.547 0.854817 359.327 0.937543C359.108 1.02027 358.861 1.10299 358.641 1.21329C354.907 2.72993 351.859 5.51502 349.992 9.04464C349.882 9.23767 349.772 9.43069 349.69 9.62372C349.58 9.84432 349.47 10.0925 349.388 10.3407C349.251 10.644 349.141 10.9473 349.031 11.2507C348.976 11.4437 348.894 11.6091 348.839 11.8022C348.702 12.2158 348.592 12.657 348.482 13.0706C348.454 13.1809 348.427 13.2636 348.4 13.3739C348.29 13.9254 348.18 14.4494 348.125 15.0285C348.125 15.056 348.125 15.056 348.125 15.0836C348.098 15.4421 348.07 15.8281 348.07 16.1866C348.07 16.4348 348.043 16.683 348.015 16.9587C348.015 17.262 348.043 17.5654 348.07 17.8411C348.098 18.1444 348.098 18.4753 348.125 18.7787C348.152 19.082 348.207 19.3578 348.262 19.6611C348.317 19.9644 348.345 20.2677 348.4 20.5711C348.454 20.8468 348.537 21.1226 348.619 21.3983C348.702 21.7016 348.784 22.005 348.866 22.3083C348.949 22.5565 349.058 22.8046 349.168 23.0528C349.278 23.3562 349.388 23.6595 349.525 23.9352C349.635 24.1834 349.772 24.404 349.882 24.6522C350.02 24.9279 350.157 25.2313 350.322 25.507C350.459 25.7276 350.624 25.9482 350.761 26.1688C350.926 26.4446 351.09 26.6927 351.283 26.9685C351.447 27.1891 351.612 27.3546 351.777 27.5752C351.969 27.8233 352.161 28.0715 352.381 28.3197C352.546 28.5127 352.738 28.6782 352.902 28.8436C353.122 29.0642 353.342 29.3124 353.616 29.5606C358.449 33.945 361.496 39.9564 361.496 46.5193C361.496 53.0546 358.449 59.066 353.616 63.4504C353.369 63.671 353.15 63.9192 352.902 64.1674C352.738 64.3328 352.546 64.4983 352.381 64.6913C352.161 64.9395 351.941 65.2153 351.722 65.491C351.585 65.684 351.42 65.8495 351.283 66.0425C351.063 66.3458 350.871 66.6492 350.678 66.9525C350.569 67.1455 350.431 67.311 350.322 67.504C350.184 67.7246 350.102 67.9452 349.965 68.1934C349.855 68.3864 349.772 68.5794 349.663 68.7724C349.608 68.8827 349.553 68.9655 349.498 69.0758C349.443 69.2136 349.388 69.3515 349.333 69.4894C349.196 69.7927 349.086 70.0961 348.976 70.3994C348.949 70.5097 348.894 70.62 348.839 70.7303C348.811 70.813 348.811 70.8682 348.784 70.9509C348.647 71.3645 348.537 71.7781 348.427 72.2193C348.4 72.3021 348.372 72.3848 348.372 72.4399C348.372 72.4675 348.372 72.4951 348.372 72.5227C348.262 73.0742 348.152 73.5981 348.098 74.1772C348.098 74.2048 348.098 74.2048 348.098 74.2599C348.07 74.6184 348.043 75.0044 348.043 75.3629C348.043 75.6111 348.015 75.8593 348.015 76.1074C348.015 76.4108 348.043 76.7141 348.07 77.0174C348.098 77.3207 348.098 77.6241 348.125 77.9274C348.152 78.2307 348.207 78.5065 348.262 78.8098C348.317 79.1131 348.345 79.4165 348.427 79.7474C348.482 80.0231 348.564 80.2989 348.647 80.5746C348.729 80.8779 348.784 81.1813 348.894 81.4846C348.976 81.7603 349.086 82.0085 349.196 82.2567C349.306 82.5325 349.415 82.8358 349.525 83.1115C349.635 83.3597 349.772 83.5803 349.91 83.8285C350.047 84.1042 350.184 84.38 350.349 84.6557C350.486 84.8763 350.624 85.0969 350.788 85.3175C350.953 85.5933 351.118 85.8415 351.31 86.1172C351.475 86.3378 351.639 86.5308 351.804 86.7515C351.996 86.9996 352.189 87.2478 352.408 87.4684C352.573 87.6614 352.793 87.8545 352.957 88.0199C353.177 88.2405 353.369 88.4611 353.616 88.6817C358.449 93.0662 361.496 99.0775 361.496 105.64C361.496 112.176 358.449 118.187 353.616 122.572C350.184 125.688 348.015 130.182 348.015 135.201C348.015 145.211 356.637 153.18 366.823 152.049C374.703 151.167 381.018 144.659 381.732 136.745C382.254 130.982 379.865 125.743 375.911 122.323C371.271 118.325 368.333 112.672 368.333 106.495V104.786C368.333 92.3492 382.309 79.4992 394.39 79.4992C400.897 79.4992 406.883 82.56 411.248 87.4133C414.351 90.8602 418.826 93.0386 423.823 93.0386C433.79 93.0386 441.725 84.38 440.6 74.1496C439.666 66.2631 433.186 59.8932 425.306 59.1763Z" fill="#B9B9B9"/>
<path d="M185.169 58.2387C182.149 56.5566 179.76 54.2954 178.058 51.4276C176.328 48.5598 175.477 45.3887 175.477 41.8866C175.477 38.2191 176.438 34.7446 178.332 31.4632C180.227 28.1542 182.725 25.507 185.8 23.494C188.875 21.481 192.06 20.4883 195.355 20.4883C198.65 20.4883 201.808 21.481 204.91 23.494C207.985 25.507 210.484 28.1542 212.379 31.4632C214.273 34.7722 215.234 38.2467 215.234 41.8866C215.234 45.3887 214.383 48.5598 212.653 51.4276C210.923 54.2954 208.562 56.5566 205.542 58.2387C202.522 59.9208 199.117 60.748 195.383 60.748C191.649 60.748 188.217 59.8932 185.169 58.2387ZM203.235 49.4974C205.322 47.5119 206.366 44.975 206.366 41.8866C206.366 39.7633 205.816 37.6952 204.718 35.6546C203.62 33.6141 202.192 31.9596 200.49 30.6635C198.76 29.3675 197.058 28.7333 195.383 28.7333C193.708 28.7333 191.978 29.3675 190.276 30.6635C188.573 31.9596 187.146 33.6141 186.047 35.6546C184.949 37.6952 184.4 39.7633 184.4 41.8866C184.4 44.975 185.443 47.5119 187.53 49.4974C189.617 51.4828 192.225 52.4755 195.41 52.4755C198.595 52.4755 201.149 51.4828 203.235 49.4974ZM185.91 13.5118C185.032 12.5742 184.592 11.4161 184.592 10.0097C184.592 8.60339 185.032 7.44523 185.91 6.53525C186.789 5.62527 187.915 5.15649 189.26 5.15649C190.605 5.15649 191.731 5.62527 192.61 6.53525C193.488 7.44523 193.928 8.60339 193.928 10.0097C193.928 11.4161 193.488 12.5742 192.61 13.5118C191.731 14.4493 190.605 14.9181 189.26 14.9181C187.915 14.9181 186.789 14.4493 185.91 13.5118ZM198.074 13.5118C197.195 12.5742 196.756 11.4161 196.756 10.0097C196.756 8.60339 197.195 7.44523 198.074 6.53525C198.952 5.62527 200.078 5.15649 201.423 5.15649C202.769 5.15649 203.894 5.62527 204.773 6.53525C205.652 7.44523 206.091 8.60339 206.091 10.0097C206.091 11.4161 205.652 12.5742 204.773 13.5118C203.894 14.4493 202.769 14.9181 201.423 14.9181C200.078 14.9181 198.952 14.4493 198.074 13.5118Z" fill="#B9B9B9"/>
<path d="M246.123 56.5842C246.123 59.3693 245.601 60.748 244.585 60.748H236.129V60.9135C236.129 66.3182 234.673 70.5648 231.736 73.5981C228.798 76.6313 224.789 78.2031 219.655 78.3134L218.282 69.9581C221.467 70.1512 223.746 69.5445 225.173 68.1382C226.574 66.7318 227.288 64.3052 227.288 60.9135V23.1631H236.129V52.4479H244.585C245.629 52.4755 246.123 53.8267 246.123 56.5842Z" fill="#B9B9B9"/>
<path d="M287.473 56.584C287.473 59.3691 286.951 60.7479 285.935 60.7479H244.585C243.57 60.7479 243.048 59.3691 243.048 56.584C243.048 53.8541 243.57 52.4753 244.585 52.4753H267.512V51.8687C267.512 45.94 266.249 41.335 263.695 38.0811C261.169 34.7997 257.545 33.1727 252.877 33.1727L247.331 27.2992L267.347 6.97632L272.893 12.7671L260.291 25.6447C265.206 27.1889 269.132 30.3325 272.015 35.0478C274.925 39.7632 276.353 45.5816 276.353 52.4753H285.908C286.951 52.4753 287.473 53.8265 287.473 56.584Z" fill="#B9B9B9"/>
<path d="M329.015 25.1209V60.748H285.908C284.892 60.748 284.37 59.3693 284.37 56.5842C284.37 53.8542 284.892 52.4755 285.908 52.4755H295.216C292.909 49.1664 291.756 45.4714 291.756 41.3351C291.756 37.4746 292.69 33.9725 294.612 30.8565C296.506 27.7405 299.087 25.2863 302.382 23.5215C305.677 21.7567 309.246 20.8467 313.145 20.8467C318.087 20.8467 323.386 22.2807 329.015 25.1209ZM303.041 48.5046C304.661 50.49 306.857 51.8137 309.63 52.4755H320.174V30.3602C317.565 29.5329 315.259 29.1193 313.255 29.1193C310.838 29.1193 308.669 29.6432 306.747 30.6911C304.825 31.7389 303.315 33.2004 302.245 35.048C301.174 36.8955 300.625 38.9636 300.625 41.2248C300.625 44.0926 301.448 46.5192 303.041 48.5046ZM309.548 12.7396C308.587 11.7194 308.093 10.4233 308.093 8.87912C308.093 7.33491 308.587 6.06646 309.548 5.04618C310.536 4.05347 311.745 3.52954 313.255 3.52954C314.765 3.52954 315.973 4.02589 316.961 5.04618C317.922 6.03888 318.417 7.33491 318.417 8.87912C318.417 10.4233 317.922 11.7194 316.961 12.7396C315.973 13.7599 314.765 14.2839 313.255 14.2839C311.745 14.2839 310.536 13.7599 309.548 12.7396Z" fill="#B9B9B9"/>
<path d="M59.8833 99.8773V137.435L16.9409 137.517C11.6142 137.517 7.4408 136.001 4.47546 132.967C1.51013 129.934 0 125.743 0 120.448C0 117.001 0.658964 113.941 2.00435 111.293C3.34973 108.646 5.27171 106.22 7.77028 104.069L14.7718 109.005C12.7125 110.797 11.2298 112.617 10.2689 114.465C9.30786 116.285 8.8411 118.27 8.8411 120.366C8.8411 123.04 9.60989 125.191 11.1475 126.791C12.6851 128.39 14.8541 129.19 17.5998 129.19H51.0148V99.8773H59.8833ZM21.6634 93.0662C20.7848 92.1287 20.3455 90.9705 20.3455 89.5642C20.3455 88.1578 20.7848 86.9997 21.6634 86.0897C22.5421 85.1797 23.6678 84.7109 25.0132 84.7109C26.3586 84.7109 27.4843 85.1797 28.3629 86.0897C29.2415 86.9997 29.6808 88.1578 29.6808 89.5642C29.6808 90.9705 29.2415 92.1287 28.3629 93.0662C27.4843 94.0038 26.3586 94.4725 25.0132 94.4725C23.6678 94.4725 22.5421 94.0038 21.6634 93.0662ZM33.8268 93.0662C32.9482 92.1287 32.5089 90.9705 32.5089 89.5642C32.5089 88.1578 32.9482 86.9997 33.8268 86.0897C34.7054 85.1797 35.8312 84.7109 37.1765 84.7109C38.5219 84.7109 39.6477 85.1797 40.5263 86.0897C41.4049 86.9997 41.8442 88.1578 41.8442 89.5642C41.8442 90.9705 41.4049 92.1287 40.5263 93.0662C39.6477 94.0038 38.5219 94.4725 37.1765 94.4725C35.8312 94.4725 34.7054 94.0038 33.8268 93.0662Z" fill="#B9B9B9"/>
<path d="M91.7333 133.271C91.7333 136.056 91.2117 137.435 90.1958 137.435H72.1841V80.1609H81.0252V129.162H90.1958C91.2391 129.162 91.7333 130.541 91.7333 133.271Z" fill="#B9B9B9"/>
<path d="M121.853 133.271C121.853 136.056 121.332 137.435 120.316 137.435H116.087C111.722 137.435 108.125 136.332 105.324 134.098C102.908 136.304 99.2014 137.435 94.1768 137.435H90.2505C89.2346 137.435 88.7129 136.056 88.7129 133.271C88.7129 130.541 89.2346 129.162 90.2505 129.162H93.4904C96.2635 129.162 98.158 128.611 99.1739 127.508C100.19 126.405 100.712 124.474 100.712 121.744V99.8772H109.553V121.827C109.553 124.143 109.333 126.211 108.866 128.004C110.212 128.776 111.804 129.162 113.726 129.162H120.343C121.332 129.162 121.853 130.541 121.853 133.271ZM95.7144 151.746C94.8358 150.809 94.3965 149.65 94.3965 148.244C94.3965 146.838 94.8358 145.68 95.7144 144.77C96.593 143.86 97.7187 143.391 99.0641 143.391C100.41 143.391 101.535 143.86 102.414 144.77C103.292 145.68 103.732 146.838 103.732 148.244C103.732 149.65 103.292 150.809 102.414 151.746C101.535 152.684 100.41 153.152 99.0641 153.152C97.7187 153.152 96.593 152.684 95.7144 151.746ZM107.878 151.746C106.999 150.809 106.56 149.65 106.56 148.244C106.56 146.838 106.999 145.68 107.878 144.77C108.756 143.86 109.882 143.391 111.227 143.391C112.573 143.391 113.699 143.86 114.577 144.77C115.456 145.68 115.895 146.838 115.895 148.244C115.895 149.65 115.456 150.809 114.577 151.746C113.699 152.684 112.573 153.152 111.227 153.152C109.882 153.152 108.756 152.684 107.878 151.746Z" fill="#B9B9B9"/>
<path d="M162.929 129.162L161.693 137.435H120.289C119.273 137.435 118.751 136.056 118.751 133.271C118.751 130.541 119.273 129.162 120.289 129.162H150.848V117.415C150.848 113.499 149.612 110.383 147.114 108.067C144.615 105.751 141.293 104.593 137.147 104.593C132.589 104.593 128.333 105.999 124.38 108.839L120.536 101.256C125.56 97.947 131.107 96.3201 137.175 96.3201C141.54 96.3201 145.412 97.23 148.844 99.0224C152.276 100.815 154.912 103.324 156.861 106.523C158.783 109.722 159.744 113.362 159.744 117.415V129.162H162.929ZM132.919 152.822C131.958 151.801 131.463 150.505 131.463 148.961C131.463 147.417 131.958 146.148 132.919 145.128C133.88 144.108 135.115 143.611 136.625 143.611C138.108 143.611 139.344 144.108 140.332 145.128C141.293 146.121 141.787 147.417 141.787 148.961C141.787 150.505 141.293 151.801 140.332 152.822C139.344 153.842 138.135 154.366 136.625 154.366C135.115 154.366 133.907 153.842 132.919 152.822Z" fill="#B9B9B9"/>
<path d="M193.104 133.271C193.104 136.056 192.582 137.435 191.566 137.435H183.11V137.6C183.11 143.005 181.654 147.251 178.717 150.285C175.779 153.318 171.77 154.89 166.636 155L165.263 146.645C168.448 146.838 170.727 146.231 172.154 144.825C173.555 143.418 174.269 140.992 174.269 137.6V99.8772H183.11V129.162H191.566C192.61 129.162 193.104 130.541 193.104 133.271Z" fill="#B9B9B9"/>
<path d="M227.754 101.146C231.488 104.372 234.426 108.756 236.54 114.299C238.655 119.842 239.561 125.908 239.314 132.499C235.772 134.098 231.955 135.311 227.892 136.166C223.8 137.021 220.121 137.435 216.854 137.435C211.939 137.435 207.134 136.387 202.467 134.263C199.913 136.387 196.646 137.435 192.692 137.435H191.621C190.605 137.435 190.083 136.056 190.083 133.271C190.083 130.541 190.605 129.162 191.621 129.162H192.692C194.339 129.162 195.63 128.776 196.591 127.976C197.552 127.177 198.128 125.908 198.403 124.143L198.623 122.13C199.089 118.049 199.748 114.244 200.572 110.687C201.423 107.13 203.071 103.848 205.487 100.842C207.93 97.8367 211.308 96.3201 215.618 96.3201C219.957 96.3201 223.993 97.9194 227.754 101.146ZM216.881 129.162C221 129.162 225.475 128.418 230.363 126.928C230.006 122.958 229.072 119.263 227.59 115.843C226.107 112.424 224.322 109.694 222.235 107.653C220.149 105.613 218.062 104.593 215.975 104.593C213.971 104.593 212.406 105.503 211.253 107.35C210.1 109.17 209.303 111.293 208.836 113.665C208.37 116.036 207.958 118.849 207.601 122.103L207.134 125.825L206.915 126.984C210.072 128.418 213.394 129.162 216.881 129.162Z" fill="#B9B9B9"/>
<path d="M289.313 133.271C289.313 136.056 288.791 137.435 287.775 137.435H283.849C278.522 137.435 274.623 136.166 272.152 133.602C269.681 131.065 268.445 127.121 268.445 121.827V121.055C266.276 121.634 264.052 121.91 261.746 121.91C259.385 121.91 257.133 121.634 254.964 121.055V137.6C254.964 143.005 253.509 147.251 250.571 150.285C247.633 153.318 243.624 154.89 238.49 155L237.117 146.645C240.302 146.838 242.581 146.231 244.009 144.825C245.409 143.418 246.123 140.992 246.123 137.6V99.8772H254.964V112.782C257.106 113.361 259.385 113.637 261.746 113.637C264.052 113.637 266.276 113.361 268.445 112.782V99.8772H277.314V121.744C277.314 124.474 277.836 126.405 278.852 127.508C279.867 128.611 281.789 129.162 284.535 129.162H287.775C288.791 129.162 289.313 130.541 289.313 133.271ZM268.473 152.822C267.484 151.801 267.018 150.505 267.018 148.961C267.018 147.417 267.512 146.148 268.473 145.128C269.434 144.135 270.669 143.611 272.18 143.611C273.662 143.611 274.898 144.108 275.886 145.128C276.847 146.121 277.341 147.417 277.341 148.961C277.341 150.505 276.847 151.801 275.886 152.822C274.898 153.842 273.69 154.366 272.18 154.366C270.669 154.366 269.434 153.842 268.473 152.822Z" fill="#B9B9B9"/>
<path d="M312.706 133.271C312.706 136.056 312.184 137.435 311.168 137.435H287.775C286.759 137.435 286.237 136.056 286.237 133.271C286.237 130.541 286.759 129.162 287.775 129.162H293.706V80.1609H302.547V129.162H311.168C312.211 129.162 312.706 130.541 312.706 133.271Z" fill="#B9B9B9"/>
<path d="M325.94 80.1609V137.435H311.168C310.153 137.435 309.631 136.056 309.631 133.271C309.631 130.541 310.153 129.162 311.168 129.162H317.099V80.1609H325.94Z" fill="#B9B9B9"/>
</g>
<defs>
<clipPath id="clip0_363_1865">
<rect width="551" height="155" fill="white"/>
</clipPath>
</defs>
</svg>
