<svg width="207" height="158" viewBox="0 0 207 158" fill="none" xmlns="http://www.w3.org/2000/svg">
<g clip-path="url(#clip0_227_209)">
<path d="M206.245 142.423C206.357 142.087 206.441 141.75 206.525 141.414C206.581 141.218 206.609 141.022 206.665 140.825C206.749 140.405 206.804 139.985 206.86 139.564C206.888 139.424 206.916 139.284 206.916 139.116C206.916 139.06 206.944 139.004 206.944 138.948C206.972 138.752 206.944 138.583 206.972 138.387C207 137.939 207.028 137.49 207 137.042C207 136.762 206.972 136.51 206.944 136.229C206.916 135.949 206.916 135.697 206.888 135.417C206.86 135.248 206.832 135.08 206.804 134.912C206.777 134.772 206.749 134.632 206.749 134.464C206.665 133.903 206.525 133.343 206.385 132.81C206.357 132.754 206.357 132.67 206.329 132.614C206.161 132.026 205.966 131.465 205.742 130.905C205.658 130.708 205.574 130.512 205.49 130.316C205.351 129.98 205.183 129.671 205.015 129.363C204.875 129.111 204.735 128.859 204.596 128.606C204.484 128.41 204.344 128.214 204.232 128.046C203.841 127.429 203.393 126.841 202.918 126.28C202.862 126.224 202.834 126.168 202.778 126.112C202.499 125.776 202.191 125.468 201.883 125.159C201.828 125.103 201.772 125.047 201.688 124.991C201.464 124.767 201.24 124.515 200.989 124.319C196.263 120.255 193.272 114.51 193.272 108.232V106.495C193.272 100.245 196.263 94.5001 200.989 90.4085C201.045 90.3524 201.101 90.2964 201.129 90.2683C201.464 89.9881 201.744 89.6798 202.051 89.3716C202.191 89.2314 202.331 89.0913 202.471 88.9512C202.89 88.4748 203.309 87.9983 203.673 87.4939C203.673 87.4659 203.701 87.4659 203.701 87.4378C204.064 86.9334 204.4 86.4289 204.707 85.8965C204.819 85.7283 204.903 85.5321 204.987 85.336C205.183 84.9716 205.379 84.5793 205.546 84.1869C205.658 83.9627 205.742 83.7105 205.826 83.4863C205.966 83.122 206.105 82.7577 206.217 82.3653C206.301 82.1131 206.357 81.8609 206.413 81.6086C206.497 81.2443 206.581 80.852 206.665 80.4596C206.721 80.1794 206.749 79.9271 206.804 79.6469C206.86 79.2545 206.888 78.8622 206.916 78.4418C206.944 78.1616 206.944 77.9093 206.972 77.6291C206.972 77.2087 206.972 76.7603 206.944 76.34C206.944 76.1438 206.944 75.9476 206.916 75.7514C206.916 75.6674 206.888 75.6113 206.888 75.5272C206.888 75.4712 206.888 75.4151 206.888 75.3591C206.86 75.1629 206.832 74.9667 206.804 74.7425C206.777 74.5183 206.749 74.2941 206.693 74.098C206.637 73.7897 206.553 73.4814 206.497 73.1731C206.441 73.005 206.413 72.8368 206.357 72.6687C206.273 72.3324 206.161 72.0241 206.05 71.6878C205.994 71.5477 205.966 71.4076 205.91 71.2674C205.798 70.9311 205.658 70.6229 205.49 70.2866C205.434 70.1745 205.378 70.0343 205.323 69.9222C205.183 69.614 205.015 69.3057 204.847 68.9974C204.791 68.8853 204.707 68.7452 204.652 68.6331C204.484 68.3528 204.288 68.0726 204.12 67.7923C204.036 67.6522 203.953 67.5121 203.869 67.4C203.701 67.1478 203.505 66.9236 203.309 66.6713C203.198 66.5312 203.086 66.3631 202.946 66.2229C202.778 66.0268 202.582 65.8306 202.415 65.6344C202.247 65.4663 202.107 65.2981 201.939 65.13C201.772 64.9618 201.604 64.8217 201.436 64.6535C201.24 64.4574 201.045 64.2892 200.849 64.1211C200.709 64.009 200.541 63.8969 200.402 63.7567C200.15 63.5606 199.926 63.3924 199.675 63.1962C199.535 63.1122 199.423 63.0281 199.283 62.916C199.004 62.7198 198.724 62.5517 198.444 62.3835C198.332 62.2994 198.193 62.2434 198.081 62.1873C197.773 62.0192 197.466 61.851 197.158 61.7109C197.046 61.6549 196.906 61.5988 196.795 61.5428C196.487 61.4026 196.152 61.2625 195.816 61.1224C195.676 61.0663 195.536 61.0383 195.397 60.9823C195.089 60.8702 194.754 60.7581 194.418 60.674C194.25 60.6179 194.082 60.5899 193.915 60.5339C193.607 60.4498 193.328 60.3937 193.02 60.3377C192.796 60.3097 192.573 60.2816 192.377 60.2256C192.181 60.1976 191.985 60.1415 191.762 60.1415C191.706 60.1415 191.65 60.1415 191.594 60.1415C191.51 60.1415 191.454 60.1135 191.37 60.1135C191.175 60.0855 190.979 60.1135 190.783 60.0855C190.336 60.0574 189.916 60.0294 189.497 60.0574C189.217 60.0574 188.966 60.0855 188.686 60.1135C188.295 60.1415 187.875 60.1695 187.484 60.2256C187.204 60.2536 186.953 60.3097 186.673 60.3657C186.282 60.4498 185.918 60.5339 185.527 60.6179C185.275 60.674 185.023 60.7581 184.772 60.8141C184.38 60.9262 184.017 61.0663 183.653 61.2065C183.43 61.2905 183.178 61.3746 182.954 61.4867C174.426 65.186 171.099 73.8177 160.698 73.8177H158.964C146.13 73.8177 135.897 62.4956 134.107 50.2767C131.982 35.5636 144.872 20.7104 159.859 20.7104C166.486 20.7104 172.581 23.8212 177.027 28.7536C180.186 32.2567 184.744 34.4707 189.832 34.4707C199.982 34.4707 208.063 25.6708 206.916 15.2736C206.022 7.23039 199.423 0.784651 191.398 0.0560017C185.555 -0.476473 180.242 1.9617 176.775 5.99729C172.721 10.7335 166.989 13.7322 160.726 13.7322H158.992C152.757 13.7322 147.025 10.7335 142.943 5.99729C142.719 5.74507 142.496 5.52087 142.272 5.29667C142.216 5.24062 142.16 5.18457 142.104 5.10049C141.797 4.79222 141.489 4.48395 141.153 4.2037C141.098 4.14765 141.042 4.11962 141.014 4.0916C140.454 3.61517 139.867 3.16677 139.252 2.77442C139.056 2.66232 138.889 2.5222 138.693 2.4101C138.441 2.26997 138.19 2.12985 137.938 1.98972C137.63 1.82157 137.295 1.65342 136.987 1.5133C136.792 1.42922 136.596 1.34515 136.4 1.26107C135.841 1.03688 135.282 0.840701 134.695 0.672551C134.639 0.644526 134.555 0.644526 134.499 0.616501C133.968 0.476376 133.408 0.336251 132.849 0.252176C132.709 0.224151 132.542 0.196126 132.402 0.196126C132.234 0.168102 132.066 0.140077 131.899 0.112052C131.619 0.0840266 131.367 0.0840266 131.088 0.0560017C130.808 0.0279767 130.556 0.0279767 130.277 -4.82686e-05C129.83 -4.82686e-05 129.382 -4.82686e-05 128.935 0.0279767C128.739 0.0279767 128.571 0.0279767 128.376 0.0560017C128.32 0.0560017 128.264 0.0840266 128.208 0.0840266C128.068 0.112052 127.928 0.112052 127.788 0.140077C127.369 0.196126 126.95 0.252176 126.53 0.336251C126.334 0.364276 126.139 0.420326 125.943 0.476376C125.608 0.560451 125.272 0.644526 124.936 0.756626C124.713 0.840701 124.461 0.89675 124.237 0.980825C123.986 1.0649 123.762 1.14898 123.538 1.26107C119.736 2.80245 116.632 5.63297 114.731 9.22016C114.619 9.41634 114.507 9.61251 114.423 9.80869C114.312 10.0329 114.2 10.2851 114.116 10.5373C113.976 10.8456 113.864 11.1539 113.752 11.4622C113.696 11.6583 113.612 11.8265 113.557 12.0227C113.417 12.443 113.305 12.8914 113.193 13.3118C113.165 13.4239 113.137 13.508 113.109 13.6201C112.997 14.1806 112.886 14.7131 112.83 15.3016C112.83 15.3296 112.83 15.3296 112.83 15.3576C112.802 15.722 112.774 16.1143 112.774 16.4786C112.774 16.7309 112.746 16.9831 112.718 17.2633C112.718 17.5716 112.746 17.8799 112.774 18.1601C112.802 18.4684 112.802 18.8047 112.83 19.113C112.858 19.4213 112.913 19.7015 112.969 20.0098C113.025 20.318 113.053 20.6263 113.109 20.9346C113.165 21.2148 113.249 21.4951 113.333 21.7753C113.417 22.0836 113.501 22.3919 113.585 22.7002C113.668 22.9524 113.78 23.2046 113.892 23.4568C114.004 23.7651 114.116 24.0734 114.256 24.3536C114.367 24.6059 114.507 24.8301 114.619 25.0823C114.759 25.3625 114.899 25.6708 115.066 25.9511C115.206 26.1753 115.374 26.3995 115.514 26.6237C115.682 26.9039 115.849 27.1561 116.045 27.4364C116.213 27.6606 116.381 27.8287 116.548 28.0529C116.744 28.3052 116.94 28.5574 117.163 28.8096C117.331 29.0058 117.527 29.1739 117.695 29.3421C117.918 29.5663 118.142 29.8185 118.422 30.0707C123.343 34.5267 126.446 40.6361 126.446 47.3061C126.446 53.948 123.343 60.0574 118.422 64.5134C116.912 65.8586 115.682 67.4841 114.731 69.3057C114.619 69.5019 114.507 69.698 114.423 69.8942C114.312 70.1184 114.2 70.3706 114.116 70.6229C113.976 70.9311 113.864 71.2394 113.752 71.5477C113.696 71.7439 113.612 71.912 113.557 72.1082C113.417 72.5286 113.305 72.977 113.193 73.3973C113.165 73.5094 113.137 73.5935 113.109 73.7056C112.997 74.2661 112.886 74.7986 112.83 75.3871C112.83 75.4151 112.83 75.4151 112.83 75.4432C112.802 75.8075 112.774 76.1718 112.774 76.5361C112.774 76.8164 112.718 77.0686 112.718 77.3488C112.718 77.6571 112.746 77.9374 112.774 78.2456C112.802 78.5819 112.802 78.8902 112.83 79.1985C112.858 79.4787 112.913 79.759 112.969 80.0673C113.025 80.3755 113.053 80.7118 113.137 81.0201C113.193 81.3004 113.277 81.5526 113.361 81.8328C113.445 82.1411 113.529 82.4774 113.612 82.7857C113.696 83.0379 113.808 83.2901 113.92 83.5704C114.032 83.8787 114.144 84.1869 114.284 84.4672C114.395 84.7194 114.535 84.9436 114.647 85.1678C114.787 85.4481 114.927 85.7563 115.094 86.0366C115.234 86.2608 115.374 86.457 115.514 86.6812C115.682 86.9614 115.877 87.2417 116.073 87.5219C116.241 87.7461 116.409 87.9423 116.576 88.1385C116.772 88.3907 116.968 88.6429 117.191 88.8671C117.387 89.0633 117.583 89.2595 117.779 89.4556C118.002 89.6798 118.226 89.904 118.45 90.1282C118.645 90.3244 118.869 90.4645 119.093 90.6607C119.344 90.8569 119.568 91.0811 119.82 91.2492C120.043 91.4174 120.295 91.5575 120.519 91.6976C120.77 91.8658 121.022 92.062 121.302 92.2021C121.525 92.3422 121.777 92.4543 122.029 92.5664C122.308 92.7065 122.588 92.8747 122.895 93.0148C123.147 93.1269 123.399 93.211 123.65 93.3231C123.958 93.4352 124.237 93.5753 124.573 93.6874C124.825 93.7715 125.104 93.8275 125.356 93.9116C125.663 93.9957 125.999 94.1078 126.307 94.1638C126.586 94.2199 126.866 94.2479 127.145 94.3039C127.481 94.36 127.788 94.416 128.124 94.4721C128.404 94.5001 128.711 94.5001 128.991 94.5281C129.326 94.5562 129.662 94.5842 129.997 94.5842C130.221 94.5842 130.473 94.5562 130.696 94.5562C131.088 94.5282 131.507 94.5281 131.871 94.5001C131.899 94.5001 131.899 94.5001 131.927 94.5001C132.486 94.4441 133.045 94.332 133.604 94.2199C133.716 94.1918 133.8 94.1638 133.912 94.1358C134.331 94.0237 134.779 93.9116 135.198 93.7715C135.394 93.7154 135.561 93.6313 135.757 93.5753C136.065 93.4632 136.372 93.3511 136.68 93.211C136.931 93.0989 137.155 93.0148 137.407 92.9027C137.602 92.8186 137.798 92.7065 137.994 92.5944C139.783 91.6416 141.433 90.3805 142.775 88.8951C147.221 83.9627 153.316 80.852 159.971 80.852C173 80.852 186.449 94.4441 186.449 107.42C186.449 119.891 173.42 133.959 160.81 133.959H159.076C152.841 133.959 147.109 130.961 143.027 126.224C139.56 122.161 134.247 119.751 128.404 120.283C120.379 120.984 113.752 127.457 112.886 135.501C111.739 145.898 119.848 154.698 129.969 154.698C135.058 154.698 139.616 152.484 142.775 148.981C147.221 144.048 153.316 140.937 159.971 140.937C166.597 140.937 172.693 144.048 177.138 149.009C177.362 149.233 177.586 149.457 177.81 149.681C178.005 149.877 178.173 150.074 178.369 150.242C178.592 150.466 178.844 150.634 179.096 150.83C179.319 150.998 179.515 151.195 179.739 151.363C179.99 151.531 180.242 151.699 180.522 151.867C180.745 152.035 180.997 152.204 181.221 152.344C181.472 152.484 181.752 152.624 182.032 152.764C182.283 152.904 182.535 153.044 182.814 153.156C183.094 153.296 183.374 153.381 183.681 153.493C183.961 153.605 184.212 153.717 184.492 153.801C184.772 153.885 185.079 153.969 185.387 154.053C185.666 154.137 185.946 154.221 186.254 154.277C186.561 154.333 186.869 154.389 187.176 154.417C187.484 154.474 187.763 154.53 188.071 154.558C188.379 154.586 188.686 154.586 189.022 154.614C189.329 154.642 189.637 154.67 189.972 154.67C190.224 154.67 190.448 154.642 190.699 154.642C191.091 154.614 191.482 154.614 191.846 154.586C191.874 154.586 191.874 154.586 191.902 154.586C192.461 154.53 193.02 154.417 193.579 154.305C193.691 154.277 193.775 154.249 193.887 154.221C194.334 154.109 194.754 153.997 195.173 153.857C195.369 153.801 195.536 153.717 195.732 153.661C196.04 153.549 196.347 153.437 196.655 153.296C196.906 153.184 197.13 153.1 197.382 152.988C197.578 152.904 197.773 152.792 197.969 152.68C201.548 150.774 204.372 147.663 205.91 143.852C205.994 143.628 206.105 143.376 206.189 143.151C206.077 142.899 206.161 142.647 206.245 142.423Z" fill="#2C45CE"/>
<path d="M78.6919 60.1413C66.3334 59.0483 60.6016 73.8455 48.0194 73.8455H46.2858C34.2349 73.8455 20.6461 60.1693 20.6461 48.1466V46.409C20.6461 33.7978 34.878 20.7102 47.1806 20.7102C53.8072 20.7102 59.9025 23.8209 64.3482 28.7533C67.5078 32.2564 72.0653 34.4704 77.1541 34.4704C87.3037 34.4704 95.3843 25.6706 94.2379 15.2733C93.3432 7.23015 86.7445 0.784404 78.7199 0.0557546C72.8762 -0.47672 67.5637 1.96145 64.0966 5.99705C60.0424 10.7333 54.3105 13.7319 48.0473 13.7319H46.3138C40.0786 13.7319 34.3467 10.7333 30.2645 5.99705C30.0408 5.74482 29.8171 5.52062 29.5934 5.29642C29.5375 5.24037 29.4816 5.1563 29.4257 5.10025C29.1181 4.79197 28.8106 4.4837 28.475 4.20345C28.4191 4.1474 28.3632 4.11937 28.3073 4.06332C27.7481 3.5869 27.1609 3.1385 26.5458 2.74615C26.3501 2.63405 26.1823 2.49393 25.9866 2.38183C25.7349 2.2417 25.4833 2.10158 25.2316 1.96145C24.9241 1.7933 24.5886 1.62515 24.281 1.48503C24.0853 1.40095 23.8895 1.31688 23.6938 1.2328C23.1346 1.0086 22.5754 0.812429 21.9883 0.644279C21.9323 0.616254 21.8484 0.616254 21.7925 0.588229C21.2613 0.448104 20.7021 0.307979 20.1429 0.223904C20.0031 0.195879 19.8353 0.167854 19.6955 0.167854C19.5277 0.139829 19.36 0.111805 19.1922 0.0837795C18.9126 0.0557546 18.6609 0.0557546 18.3813 0.0277296C18.1017 -0.00029535 17.8501 -0.00029535 17.5705 -0.0283203C17.1231 -0.0283203 16.6757 -0.0283203 16.2284 -0.00029535C16.0327 -0.00029535 15.8649 -0.00029535 15.6692 0.0277296C15.6133 0.0277296 15.5573 0.0557546 15.5014 0.0557546C15.3616 0.0837795 15.2218 0.0837795 15.0541 0.111804C14.6346 0.167854 14.2152 0.223904 13.7958 0.307979C13.6001 0.336004 13.4044 0.392054 13.2087 0.448104C12.8731 0.532179 12.5376 0.616254 12.2021 0.728354C11.9784 0.812428 11.7268 0.868478 11.5031 0.952553C11.2794 1.03663 11.0278 1.1207 10.8041 1.2328C7.00149 2.77418 3.89786 5.6047 1.99655 9.19189C1.88471 9.38807 1.77287 9.58424 1.68898 9.78042C1.57714 10.0046 1.4653 10.2568 1.38142 10.5091C1.24162 10.8173 1.1298 11.1256 1.01796 11.4339C0.962041 11.6301 0.87814 11.7982 0.822219 11.9944C0.682417 12.4148 0.570562 12.8632 0.45872 13.2835C0.43076 13.3956 0.402803 13.4797 0.374842 13.5918C0.263001 14.1523 0.151185 14.6848 0.0952639 15.2733C0.0952639 15.3013 0.0952639 15.3013 0.0952639 15.3294C0.0673035 15.6937 0.0393312 16.086 0.0393312 16.4504C0.0393312 16.7026 0.0113588 16.9548 -0.0166016 17.2351C-0.0166016 17.5433 0.0113708 17.8516 0.0393312 18.1319C0.0672916 18.4401 0.0673035 18.7764 0.0952639 19.0847C0.123224 19.393 0.179111 19.6732 0.235032 19.9815C0.290953 20.2898 0.318921 20.5981 0.374842 20.9063C0.430763 21.1866 0.514649 21.4668 0.598531 21.7471C0.682412 22.0554 0.766283 22.3636 0.850164 22.6719C0.934045 22.9241 1.04589 23.1763 1.15773 23.4286C1.26957 23.7368 1.38143 24.0451 1.52123 24.3254C1.63307 24.5776 1.77289 24.8018 1.88473 25.054C2.02453 25.3343 2.1643 25.6425 2.33206 25.9228C2.47186 26.147 2.63964 26.3712 2.77944 26.5954C2.9472 26.8756 3.11497 27.1279 3.31069 27.4081C3.47845 27.6323 3.64624 27.8005 3.814 28.0247C4.00972 28.2769 4.20541 28.5291 4.42909 28.7813C4.59685 28.9775 4.79258 29.1457 4.96035 29.3138C5.18403 29.538 5.40774 29.7902 5.68734 30.0425C10.6084 34.4984 13.712 40.6079 13.712 47.2778C13.712 53.9197 10.6084 60.0292 5.68734 64.4851C5.4357 64.7093 5.21199 64.9616 4.96035 65.2138C4.79258 65.3819 4.59685 65.5501 4.42909 65.7463C4.20541 65.9985 3.98175 66.2787 3.75807 66.559C3.61827 66.7552 3.45049 66.9233 3.31069 67.1195C3.08701 67.4278 2.89128 67.736 2.69556 68.0443C2.58372 68.2405 2.4439 68.4086 2.33206 68.6048C2.19226 68.829 2.10841 69.0532 1.96861 69.3054C1.85676 69.5016 1.77288 69.6978 1.66104 69.894C1.60512 70.0061 1.5492 70.0901 1.49328 70.2022C1.43736 70.3424 1.38141 70.4825 1.32549 70.6226C1.18568 70.9309 1.07387 71.2392 0.962029 71.5474C0.934069 71.6595 0.87814 71.7716 0.822219 71.8837C0.794258 71.9678 0.794246 72.0239 0.766286 72.1079C0.626484 72.5283 0.514672 72.9487 0.40283 73.3971C0.37487 73.4812 0.346897 73.5652 0.346897 73.6213C0.346897 73.6493 0.346897 73.6773 0.346897 73.7054C0.235056 74.2659 0.123197 74.7983 0.0672762 75.3868C0.0672762 75.4149 0.0672762 75.4149 0.0672762 75.4709C0.0393158 75.8353 0.0113861 76.2276 0.0113861 76.5919C0.0113861 76.8442 -0.0166016 77.0964 -0.0166016 77.3486C-0.0166016 77.6569 0.0113708 77.9651 0.0393312 78.2734C0.0672916 78.5817 0.0673035 78.89 0.0952639 79.1982C0.123224 79.5065 0.179111 79.7868 0.235032 80.095C0.290953 80.4033 0.318949 80.7116 0.40283 81.0479C0.458751 81.3281 0.542594 81.6084 0.626476 81.8886C0.710357 82.1969 0.76631 82.5052 0.878152 82.8135C0.962033 83.0937 1.07388 83.3459 1.18572 83.5982C1.29756 83.8784 1.40939 84.1867 1.52123 84.4669C1.63307 84.7192 1.77287 84.9434 1.91267 85.1956C2.05247 85.4758 2.19229 85.7561 2.36005 86.0363C2.49985 86.2605 2.63966 86.4847 2.80743 86.7089C2.97519 86.9892 3.14291 87.2414 3.33864 87.5217C3.5064 87.7459 3.67418 87.942 3.84195 88.1662C4.03767 88.4185 4.2334 88.6707 4.45708 88.8949C4.62484 89.0911 4.84852 89.2872 5.01628 89.4554C5.23996 89.6796 5.4357 89.9038 5.68734 90.128C10.6084 94.5839 13.712 100.693 13.712 107.363C13.712 114.005 10.6084 120.115 5.68734 124.571C2.19229 127.737 -0.0166016 132.306 -0.0166016 137.406C-0.0166016 147.579 8.76298 155.678 19.1363 154.529C27.1609 153.633 33.5918 147.019 34.3188 138.975C34.85 133.118 32.4175 127.794 28.3912 124.318C23.6659 120.255 20.6741 114.51 20.6741 108.232V106.495C20.6741 93.8553 34.9059 80.7957 47.2085 80.7957C53.8351 80.7957 59.9305 83.9064 64.3762 88.8388C67.5357 92.342 72.0933 94.5559 77.1821 94.5559C87.3317 94.5559 95.4122 85.7561 94.2659 75.3588C93.3152 67.3437 86.7166 60.8699 78.6919 60.1413Z" fill="#2C45CE"/>
</g>
<defs>
<clipPath id="clip0_227_209">
<rect width="207" height="157.528" fill="white"/>
</clipPath>
</defs>
</svg>
