<svg width="121" height="121" viewBox="0 0 121 121" fill="none" xmlns="http://www.w3.org/2000/svg">
<rect x="-1.5" y="1.5" width="118" height="118" rx="59" transform="matrix(-1 0 0 1 118 0)" stroke="#DDB12D" stroke-width="3"/>
<path d="M75 43C76.6569 43 78 44.3431 78 46L78 73C78 74.6569 76.6569 76 75 76C73.3431 76 72 74.6569 72 73V49H48C46.3431 49 45 47.6569 45 46C45 44.3431 46.3431 43 48 43L75 43ZM44.8787 71.8787L72.8787 43.8787L77.1213 48.1213L49.1213 76.1213L44.8787 71.8787Z" fill="#DDB12D"/>
</svg>
