<svg xmlns="http://www.w3.org/2000/svg" version="1.1" xmlns:xlink="http://www.w3.org/1999/xlink" width="512" height="512" x="0" y="0" viewBox="0 0 48 48" style="enable-background:new 0 0 512 512" xml:space="preserve" class=""><g><path d="M25.555 39.993a5.99 5.99 0 0 1 .8-3.1L33 25.387V24h.8l1.732-3H33v-6h6v.784a3.851 3.851 0 0 1 3-.641V9a5 5 0 0 0-5-5H8a5 5 0 0 0-5 5v27a5 5 0 0 0 5 5h17.572ZM33 7h4a2 2 0 0 1 2 2v3h-6ZM12 38H8a2 2 0 0 1-2-2v-3h6Zm0-8H6v-6h6Zm0-9H6v-6h6Zm0-9H6V9a2 2 0 0 1 2-2h4Zm4.994 15.626v-9.252a2 2 0 0 1 3-1.732l8.012 4.626a2 2 0 0 1 0 3.464l-8.012 4.626a2 2 0 0 1-3-1.732ZM39 34.995V36a2 2 0 0 1-1.719 1.972L35.533 41H37a5 5 0 0 0 5-5v-6.2Z" fill="#000000" opacity="1" data-original="#000000" class=""></path><path d="M37.7 21.249 28.536 37.12l5.2 3L42.9 24.249Zm.287 7.5a1 1 0 0 1-1.732-1l1.5-2.6a1 1 0 1 1 1.732 1ZM43.9 22.516l.837-1.449A2 2 0 0 0 44 18.335l-1.732-1a2 2 0 0 0-2.732.732l-.837 1.45ZM27.674 38.932a3.983 3.983 0 0 0-.12 1.028l.052 3.055a1 1 0 0 0 1.485.858l2.672-1.483a4.007 4.007 0 0 0 .831-.618Z" fill="#000000" opacity="1" data-original="#000000" class=""></path></g></svg>