<svg xmlns="http://www.w3.org/2000/svg" version="1.1" xmlns:xlink="http://www.w3.org/1999/xlink" width="512" height="512" x="0" y="0" viewBox="0 0 32 32" style="enable-background:new 0 0 512 512" xml:space="preserve"><g><path d="M28.9 13.1c-1.5-1.5-3.9-1.5-5.4 0L13.3 23.3c-.1.1-.2.3-.3.5l-1 5c-.1.3 0 .7.3.9.2.2.6.3.9.3l5-1c.2 0 .4-.1.5-.3l10.2-10.2c1.5-1.5 1.5-3.9 0-5.4zm-11.4 14-3.2.6.6-3.2 8.1-8.1 2.6 2.6zm10-10-.5.5-2.6-2.6.5-.5c.7-.7 1.9-.7 2.6 0s.7 1.9 0 2.6zM18.3 14.7c.4.4 1 .4 1.4 0s.4-1 0-1.4l-2-2c-.4-.4-1-.4-1.4 0L11 16.6l-2.3-2.3c-.4-.4-1-.4-1.4 0L4 17.6V5c0-.6.4-1 1-1h18c.6 0 1 .4 1 1v4c0 .6.4 1 1 1s1-.4 1-1V5c0-1.7-1.3-3-3-3H5C3.3 2 2 3.3 2 5v18c0 1.7 1.3 3 3 3h5c.6 0 1-.4 1-1s-.4-1-1-1H5c-.6 0-1-.4-1-1v-2.6l4-4 2.3 2.3c.4.4 1 .4 1.4 0l5.3-5.3z" fill="#000000" opacity="1" data-original="#000000"></path><path d="M8 9c0 1.7 1.3 3 3 3s3-1.3 3-3-1.3-3-3-3-3 1.3-3 3zm4 0c0 .6-.4 1-1 1s-1-.4-1-1 .4-1 1-1 1 .4 1 1z" fill="#000000" opacity="1" data-original="#000000"></path></g></svg>